<svg width="39.043945" height="25.833740" viewBox="0 0 39.0439 25.8337" fill="none" xmlns="http://www.w3.org/2000/svg" xmlns:xlink="http://www.w3.org/1999/xlink">
	<desc>
			Created with Pixso.
	</desc>
	<defs/>
	<path id="Vector" d="M7.99365 11.25C6.75391 11.25 5.74512 12.2588 5.74512 13.498L5.74512 17.2737C5.74512 17.5618 5.41846 17.7346 5.18799 17.5715C2.84375 15.9478 1.92139 13.6228 2.42139 10.5872C2.49805 10.126 2.40186 10.0105 2.19043 9.63599C1.17188 7.84888 1.05713 5.86987 1.58496 3.97705C2.44043 1.71973 4.07324 1.35449 6.49463 2.8916C7.4585 3.26636 8.52832 3.26636 9.49219 2.8916C10.626 2.1709 11.5957 1.86377 12.3838 1.98877C12.2207 2.07495 12.0669 2.19043 11.9131 2.31519C11.0581 3.05518 10.7505 4.16943 10.7026 5.26465L10.7026 5.34155C10.8081 7.60889 11.6724 9.68384 13.373 11.2212C13.4307 11.269 13.5078 11.3269 13.5654 11.3845C13.5752 11.4133 13.5752 11.4517 13.585 11.4709C13.6138 11.6824 13.6519 11.884 13.6904 12.0762C13.7002 14.3916 12.7393 16.2266 10.7983 17.5715C10.5586 17.7346 10.2314 17.5618 10.2314 17.2737L10.2314 13.498C10.2314 12.2588 9.23242 11.25 7.99365 11.25ZM2.19043 25.8335C0.97998 25.8335 0 24.8442 0 23.6431L0 10.5293L1.44092 10.5293C0.941406 13.7478 1.90234 16.4858 4.63086 18.3784C5.50488 18.9836 6.7251 18.3496 6.7251 17.2737L6.7251 13.498C6.7251 12.7966 7.2915 12.2297 7.99316 12.2297C8.69434 12.2297 9.26123 12.7966 9.26123 13.498L9.26123 17.2737C9.26123 18.3496 10.4717 18.9836 11.3555 18.3784C12.9214 17.2832 13.959 15.8901 14.4111 14.1995C15.3042 16.0439 16.8413 17.3696 19.0796 18.0229C20.1079 18.3303 21.0591 17.3408 20.7227 16.3225C20.3286 15.1311 19.9351 13.9302 19.541 12.739C19.3198 12.0667 19.6753 11.3557 20.3481 11.1345C21.0107 10.9136 21.7314 11.2786 21.9526 11.9417C22.3467 13.1331 22.7402 14.3337 23.1343 15.5251C23.4604 16.5146 24.729 16.7644 25.4014 15.9958C25.978 16.9565 26.7656 17.7349 27.688 18.3784C28.5625 18.9836 29.7822 18.3499 29.7822 17.2737L29.7822 13.498C29.7822 12.7966 30.3491 12.2297 31.0508 12.2297C31.7515 12.2297 32.3184 12.7966 32.3184 13.498L32.3184 17.2737C32.3184 18.3496 33.5288 18.9836 34.4131 18.3784C37.1411 16.4858 38.1025 13.7478 37.5928 10.5295L39.0439 10.5295L39.0439 23.6431C39.0439 24.8442 38.0542 25.8337 36.853 25.8337L2.19043 25.8337L2.19043 25.8335ZM31.0508 11.25C29.811 11.25 28.8027 12.2588 28.8027 13.498L28.8027 17.2737C28.8027 17.5618 28.4756 17.7346 28.2456 17.5715C27.2368 16.8796 26.4966 16.0535 26.0166 15.1023C27.4668 12.6526 27.3618 10.001 25.9873 7.37842C25.978 7.35913 25.959 7.33008 25.9492 7.30127C25.959 7.22461 25.9873 7.1189 25.9976 7.05151C26.3145 5.47607 26.1509 3.9292 25.5742 2.4978C26.5063 1.66211 27.832 1.79639 29.5522 2.8916C30.5029 3.26636 31.5884 3.26636 32.5493 2.8916C34.9609 1.35449 36.5938 1.71973 37.4492 3.97705C37.9873 5.86987 37.8623 7.84888 36.8438 9.63599C36.6323 10.0105 36.5361 10.126 36.6133 10.5872C37.1128 13.6228 36.2002 15.9478 33.856 17.5715C33.6157 17.7346 33.2891 17.5618 33.2891 17.2737L33.2891 13.498C33.2891 12.2588 32.29 11.25 31.0508 11.25ZM20.0405 10.2026C18.8589 10.5967 18.2251 11.8647 18.6094 13.0369C18.6094 13.0369 19.0029 14.2378 19.8008 16.6301C19.8867 16.9087 19.6372 17.168 19.3584 17.0913C16.6206 16.2842 15.0161 14.3625 14.5454 11.3269C14.4688 10.856 14.353 10.7793 14.0264 10.491C12.499 9.11719 11.769 7.27246 11.6826 5.30322C11.7788 2.8916 13.2197 2.03662 15.9956 2.73804C17.0239 2.78589 18.0518 2.44971 18.8398 1.79639C20.6553 -0.41333 22.3174 -0.586182 23.8354 1.28735C24.9404 2.93018 25.4497 4.84204 25.0464 6.85962C24.9595 7.28223 24.9019 7.41675 25.123 7.82983C26.5449 10.5581 26.4004 13.0559 24.6904 15.333C24.5078 15.5635 24.1523 15.4963 24.0566 15.2273C23.6621 14.0298 23.2681 12.832 22.875 11.634C22.4907 10.4526 21.2227 9.81836 20.0405 10.2026ZM5.88916 4.45752C5.63965 4.36157 5.51416 4.08301 5.61084 3.83325C5.6333 3.77393 5.66748 3.71948 5.71094 3.67334C5.75488 3.6272 5.80713 3.59009 5.86523 3.56421C5.92334 3.53833 5.98584 3.52417 6.04932 3.52246C6.11279 3.52075 6.17578 3.53174 6.23535 3.55469C6.80176 3.77563 7.39746 3.88135 7.99316 3.88135C8.58887 3.88135 9.18457 3.77563 9.7417 3.55469C10.001 3.4585 10.2798 3.58325 10.376 3.83325C10.3984 3.89258 10.4097 3.95557 10.4077 4.01904C10.4062 4.08276 10.3921 4.14526 10.3662 4.20312C10.3403 4.26123 10.3032 4.31348 10.2568 4.35718C10.2109 4.40088 10.1562 4.43506 10.0972 4.45752C9.41504 4.72656 8.7041 4.86133 7.99316 4.86133C7.28271 4.86133 6.56152 4.72656 5.88916 4.45752ZM28.9468 4.45752C28.687 4.36157 28.5625 4.08301 28.668 3.83325C28.6909 3.77393 28.7246 3.71948 28.7686 3.67334C28.812 3.6272 28.8643 3.59009 28.9224 3.56421C28.9805 3.53833 29.043 3.52417 29.1064 3.52246C29.1699 3.521 29.2334 3.53174 29.2925 3.55469C29.8501 3.77563 30.4453 3.88135 31.0508 3.88135C31.6465 3.88135 32.2422 3.77563 32.7988 3.55469C33.0488 3.4585 33.3369 3.58325 33.4331 3.83325C33.4561 3.89233 33.4668 3.95557 33.4653 4.01904C33.4634 4.08252 33.4492 4.14526 33.4233 4.20312C33.3975 4.26123 33.3604 4.31348 33.3145 4.35718C33.2681 4.40088 33.2139 4.43481 33.1543 4.45752C32.4727 4.72656 31.7617 4.86133 31.0508 4.86133C30.3398 4.86133 29.6187 4.72656 28.9468 4.45752ZM15.9189 4.41919C15.6504 4.40942 15.439 4.17896 15.4482 3.90991C15.4673 3.64087 15.6885 3.43921 15.9575 3.44897C16.563 3.47778 17.168 3.39111 17.7349 3.2085C18.3018 3.02588 18.8301 2.72827 19.2915 2.34399C19.5029 2.18042 19.8101 2.20947 19.9829 2.41113C20.1465 2.62256 20.1177 2.92993 19.916 3.10278C19.3491 3.56396 18.7153 3.90991 18.0327 4.13086C17.3599 4.36157 16.6396 4.45752 15.9189 4.41919Z" fill="#FFFFFF" fill-opacity="1.000000" fill-rule="evenodd"/>
</svg>
