<svg width="30.747070" height="36.239014" viewBox="0 0 30.7471 36.239" fill="none" xmlns="http://www.w3.org/2000/svg" xmlns:xlink="http://www.w3.org/1999/xlink">
	<desc>
			Created with Pixso.
	</desc>
	<defs/>
	<path id="Vector" d="M16.25 23.0544L18.2476 26.25L14.2529 26.25L16.25 23.0544ZM20.5024 26.25L22.5 23.0544L24.4976 26.25L20.5024 26.25ZM24.7749 27.5L22.5 34.7793L20.2251 27.5L24.7749 27.5ZM23.6274 22.5L27.6226 22.5L25.625 25.6956L23.6274 22.5ZM21.3726 22.5L19.375 25.6956L17.3774 22.5L21.3726 22.5ZM18.9155 27.5L21.0898 34.4575L14.5674 27.5L18.9155 27.5ZM26.0845 27.5L30.4331 27.5L23.9102 34.4575L26.0845 27.5ZM26.7524 26.25L28.75 23.0544L30.7471 26.25L26.7524 26.25ZM9.84863 0C11.1821 -0.00390625 12.4756 0.457275 13.5059 1.30444C13.0283 1.92847 12.7085 2.65845 12.5732 3.43262C11.9751 3.56958 11.3882 3.75073 10.8169 3.97437C9.90088 2.51343 8.60156 1.33203 7.06055 0.558838C7.91064 0.190918 8.82715 0.000732422 9.75293 0L9.84863 0ZM14.9277 19.0813C14.6909 18.605 14.3262 18.2043 13.8735 17.925C13.4214 17.6455 12.8999 17.4983 12.3682 17.5C11.9243 17.5012 11.4863 17.605 11.0894 17.8037C10.6924 18.0022 10.3467 18.29 10.0796 18.6443C9.21875 19.7959 8.75293 21.1943 8.75 22.6318C8.75 24.6699 9 26.7051 9.49414 28.6807L9.98486 30.6431C10.0029 30.7151 10.0039 30.79 9.98877 30.8625C9.97314 30.9351 9.94141 31.0032 9.896 31.0615C9.8501 31.1199 9.79199 31.1672 9.72559 31.2C9.65918 31.2327 9.58594 31.2498 9.51172 31.25C9.18994 31.2488 8.88135 31.1211 8.65332 30.8943C7.00488 29.2498 5.70996 27.2856 4.84766 25.1226C4.11133 23.2837 3.6377 21.3503 3.44141 19.3794C3.22021 17.1802 2.42871 15.0767 1.14453 13.2776C0.397949 12.2363 -0.00244141 10.9868 0 9.70557L0 6.875C0 3.80762 2.46826 1.31055 5.52246 1.25513C6.59668 1.62817 7.58154 2.22095 8.41406 2.99561C9.24658 3.77051 9.9082 4.71021 10.3574 5.75513L10.6758 6.49683L11.8242 6.00366L11.5063 5.26245C11.4795 5.20068 11.4448 5.14307 11.4175 5.08179C12.6577 4.61768 13.9707 4.37842 15.2949 4.375C17.0327 4.375 18.7393 4.84741 20.23 5.74194L20.9282 6.16138L21.5713 5.08936L20.873 4.66992C19.188 3.65918 17.2603 3.12524 15.2949 3.125C14.8325 3.125 14.3745 3.1543 13.9199 3.20435C14.0908 2.63428 14.3989 2.11475 14.8174 1.69189C15.502 1.01099 16.4272 0.627686 17.3926 0.625C20.8979 0.625 23.75 3.47681 23.75 6.98242C23.751 8.07446 23.5498 9.15698 23.1567 10.1755L22.1299 12.845C21.1338 15.4316 20.6235 18.1799 20.625 20.9519C20.625 21.0513 20.6201 21.1506 20.6187 21.25L16.25 21.25C16.144 21.25 16.0396 21.2771 15.9473 21.3284C15.8545 21.3796 15.7764 21.4539 15.7202 21.5437L15.6064 21.7256C15.5659 20.8066 15.3345 19.906 14.9277 19.0813ZM16.1831 33.6138L14.1401 36.1682C14.0239 36.3137 13.7505 36.2183 13.75 36.0308C13.75 35.4014 13.834 34.7749 14.0015 34.1614C14.3955 32.7102 14.7192 31.2407 14.9712 29.7581L17.23 32.1675C16.9023 32.6648 16.5532 33.1472 16.1831 33.6138Z" fill="#FFFFFF" fill-opacity="1.000000" fill-rule="nonzero"/>
</svg>
