<svg width="32.116211" height="39.601807" viewBox="0 0 32.1162 39.6018" fill="none" xmlns="http://www.w3.org/2000/svg" xmlns:xlink="http://www.w3.org/1999/xlink">
	<desc>
			Created with Pixso.
	</desc>
	<defs/>
	<path id="Vector" d="M9.23682 17.3079C8.20361 20.9272 7.54736 24.4343 7.17285 26.7866C6.80176 25.7485 6.36035 24.7358 5.84229 23.7312C3.86279 19.8921 4.67139 17.6265 5.11133 16.8306C5.41895 16.2734 5.72852 16.071 5.83301 16.0156C6.59619 16.0234 6.77295 16.1243 7.30908 16.4304C7.7627 16.6899 8.39111 17.0493 9.23682 17.3079ZM17.166 23.7312C16.4868 25.0469 15.9399 26.3774 15.5103 27.7593C14.291 25.5767 12.3706 25.3086 11.5044 25.3086C10.8481 25.3086 9.58936 25.4617 8.48779 26.4812C8.86963 24.168 9.50195 20.9148 10.4619 17.5728C10.7861 17.6147 11.1333 17.6392 11.5044 17.6392C13.584 17.6392 14.9072 16.8828 15.6987 16.4304C16.2339 16.125 16.4111 16.0234 17.1777 16.0156C17.2837 16.0735 17.5918 16.2781 17.8965 16.8306C18.3364 17.6265 19.1455 19.8921 17.166 23.7312Z" fill="#FFFFFF" fill-opacity="1.000000" fill-rule="nonzero"/>
	<path id="Vector" d="M4.73145 24.3042C5.64795 26.0815 6.31201 27.8862 6.76123 29.8188C6.74023 30.4353 6.6001 34.3845 6.43311 37.5291C6.42236 37.7393 6.41113 38.5869 6.40039 39.6018C5.57764 39.4658 5.00977 39.0127 4.67383 38.229C4.34424 37.4604 4.26123 36.436 4.15576 35.1401C3.96436 32.7886 3.70264 29.5688 1.77441 25.8291C0.612793 23.5767 0.0161133 21.3657 0.000488281 19.2581C-0.0131836 17.4214 0.426758 15.7173 1.27197 14.3298C2.37549 12.5198 4.04102 11.4385 5.72754 11.4385C7.79736 11.4385 8.78564 12.0034 9.5791 12.4565C9.94873 12.6675 10.27 12.8511 10.6685 12.9587C10.3208 13.8735 9.98682 14.8423 9.66846 15.8628L9.59082 16.1118C8.89551 15.8979 8.3667 15.5955 7.9292 15.3455C7.24316 14.9534 6.86377 14.7651 5.73486 14.7651L5.73389 14.7651C5.71582 14.7651 5.69873 14.7659 5.68066 14.7673C5.36914 14.7939 4.62061 15.1338 4.01758 16.2268C3.47998 17.1978 2.4751 19.9299 4.73145 24.3042ZM15.3213 37.4924C15.3315 37.6956 15.3462 38.5688 15.3618 39.5581C14.4502 39.3064 13.729 38.5181 13.2129 37.2056C12.7183 35.9478 12.4517 34.3533 12.2173 32.9463C12.0825 32.1377 11.9551 31.3745 11.8027 30.7861C11.6807 30.3142 11.5728 30.0798 11.5044 29.9651C11.4346 30.0798 11.3276 30.3142 11.2051 30.7861C11.0527 31.3745 10.9253 32.1377 10.791 32.9463C10.5557 34.3533 10.29 35.9478 9.79492 37.2056C9.2793 38.5151 8.56055 39.3032 7.65088 39.5564C7.66113 38.605 7.67236 37.7791 7.68164 37.5955C7.8501 34.4229 7.99072 30.4377 8.01123 29.8525C8.04102 29.74 8.07227 29.6323 8.10254 29.5322C8.89697 26.9448 10.5747 26.5588 11.5044 26.5588C12.4331 26.5588 14.1113 26.9448 14.9048 29.5322C14.9355 29.6323 14.9658 29.7378 14.9966 29.8511C15.0166 30.4236 15.1543 34.3345 15.3213 37.4924Z" fill="#FFFFFF" fill-opacity="1.000000" fill-rule="nonzero"/>
	<path id="Vector" d="M23.0073 19.2581C22.9917 21.3657 22.395 23.5767 21.2339 25.8291C19.3052 29.5688 19.0435 32.7886 18.853 35.1401C18.7476 36.436 18.6636 37.4604 18.335 38.229C17.999 39.0103 17.4331 39.4626 16.6128 39.6011C16.5967 38.5471 16.5815 37.6548 16.5693 37.4268C16.4043 34.3032 16.2676 30.4353 16.2466 29.8213C16.6958 27.8877 17.3608 26.0815 18.2769 24.3042C20.5327 19.9299 19.5278 17.1978 18.9912 16.2268C18.3882 15.1353 17.645 14.7954 17.3354 14.7673C17.3174 14.7659 17.2988 14.7651 17.2803 14.7651C16.145 14.7651 15.7646 14.9534 15.0786 15.3455C14.3076 15.7861 13.252 16.3892 11.5044 16.3892C11.2651 16.3892 11.0386 16.3784 10.8247 16.3572C10.8379 16.311 10.853 16.2659 10.8667 16.2197C11.2207 15.0894 11.5918 14.0251 11.9795 13.0315C12.5605 12.9526 12.9551 12.7268 13.4287 12.4565C14.2231 12.0034 15.2114 11.4385 17.2803 11.4385C18.9668 11.4385 20.6323 12.5198 21.7363 14.3298C22.5815 15.7173 23.021 17.4214 23.0073 19.2581Z" fill="#FFFFFF" fill-opacity="1.000000" fill-rule="nonzero"/>
	<path id="Vector" d="M30.1865 0L23.1226 0C22.0762 0 21.2021 0.748535 21.0068 1.73755C18.4561 1.9375 16.1396 3.45459 14.1123 6.25708C12.853 7.99854 11.6987 10.2454 10.6685 12.9585C10.9092 13.0242 11.1787 13.0625 11.5044 13.0625C11.6772 13.0625 11.834 13.0515 11.9795 13.0312C12.9331 10.5859 13.9878 8.56006 15.1294 6.98438C16.9028 4.53442 18.8818 3.19458 21.0176 2.99219C21.2334 3.95557 22.0942 4.67822 23.1226 4.67822L30.1865 4.67822C31.2505 4.67822 32.1162 3.8125 32.1162 2.74854L32.1162 1.93042C32.1162 0.866455 31.2505 0 30.1865 0Z" fill="#FFFFFF" fill-opacity="1.000000" fill-rule="nonzero"/>
</svg>
