<svg width="39.687500" height="33.841553" viewBox="0 0 39.6875 33.8416" fill="none" xmlns="http://www.w3.org/2000/svg" xmlns:xlink="http://www.w3.org/1999/xlink">
	<desc>
			Created with Pixso.
	</desc>
	<defs/>
	<path id="Vector" d="M39.6836 13.5857C39.6694 13.4519 39.6118 13.3267 39.5205 13.2283C39.4292 13.1296 39.3081 13.0632 39.1758 13.0388C37.457 12.7214 35.8965 11.5083 34.0898 10.1038C32.4893 8.85913 30.6743 7.44824 28.4956 6.55762C25.4805 5.32544 23.7915 6.60962 22.4346 7.6416C21.5762 8.29443 20.8345 8.85815 19.8438 8.85815C18.853 8.85815 18.1113 8.29443 17.2529 7.6416C15.896 6.60986 14.207 5.32568 11.1914 6.55762C9.01318 7.44824 7.19824 8.85913 5.59766 10.1038C3.79102 11.5083 2.23047 12.7214 0.511719 13.0391C0.379395 13.0635 0.258789 13.1299 0.166992 13.2283C0.0756836 13.3267 0.0185547 13.4521 0.00390625 13.5857C-0.0107422 13.7192 0.0180664 13.854 0.0859375 13.9697C0.153809 14.0857 0.257812 14.1768 0.381348 14.229C1.05957 14.5161 1.77246 14.7686 2.50098 14.9797C3.44287 15.2515 4.44043 15.4624 5.46436 15.6067C8.96143 16.1035 12.3359 15.8093 15.313 15.55C17.0591 15.3977 18.5669 15.2666 19.8164 15.3208C19.8345 15.3215 19.853 15.3215 19.8711 15.3208C21.1206 15.2666 22.6284 15.3977 24.3745 15.55C26.1733 15.7068 28.1162 15.876 30.1445 15.876C31.4731 15.876 32.8384 15.8035 34.2222 15.6067C35.2471 15.4624 36.2446 15.2515 37.1875 14.9795C37.915 14.7686 38.6279 14.5161 39.3062 14.229C39.4302 14.1768 39.5337 14.0857 39.6016 13.97C39.6694 13.854 39.6982 13.7192 39.6836 13.5857ZM7.2998 3.6499C7.2998 3.48413 7.23438 3.3252 7.1167 3.20801C6.99951 3.09082 6.84082 3.0249 6.6748 3.0249C5.35156 3.0249 4.2749 1.94849 4.2749 0.625C4.2749 0.459229 4.20898 0.300293 4.0918 0.183105C3.97461 0.065918 3.81592 0 3.6499 0C3.48438 0 3.3252 0.065918 3.20801 0.183105C3.09082 0.300293 3.0249 0.459229 3.0249 0.625C3.0249 1.94849 1.94824 3.0249 0.625 3.0249C0.459473 3.0249 0.300293 3.09082 0.183105 3.20801C0.065918 3.3252 0 3.48413 0 3.6499C0 3.81567 0.065918 3.97461 0.183105 4.09204C0.300293 4.20923 0.459473 4.2749 0.625 4.2749C1.94824 4.2749 3.0249 5.35181 3.0249 6.67505C3.0249 6.84082 3.09082 6.99976 3.20801 7.11694C3.3252 7.23413 3.48438 7.30005 3.6499 7.30005C3.81592 7.30005 3.97461 7.23413 4.0918 7.11694C4.20898 6.99976 4.2749 6.84082 4.2749 6.67505C4.2749 5.35181 5.35156 4.2749 6.6748 4.2749C6.84082 4.2749 6.99951 4.20923 7.1167 4.09204C7.23438 3.97461 7.2998 3.81567 7.2998 3.6499ZM39.0625 29.5664C37.7393 29.5664 36.6626 28.4897 36.6626 27.1665C36.6626 27.0007 36.5967 26.8418 36.4795 26.7246C36.3623 26.6074 36.2031 26.5415 36.0376 26.5415C35.8716 26.5415 35.7129 26.6074 35.5957 26.7246C35.4785 26.8418 35.4126 27.0007 35.4126 27.1665C35.4126 28.4897 34.3359 29.5664 33.0127 29.5664C32.8467 29.5664 32.688 29.6323 32.5703 29.7495C32.4531 29.8667 32.3877 30.0256 32.3877 30.1914C32.3877 30.3572 32.4531 30.5161 32.5703 30.6335C32.688 30.7507 32.8467 30.8164 33.0127 30.8164C34.3359 30.8164 35.4126 31.8931 35.4126 33.2166C35.4126 33.3823 35.4785 33.5413 35.5957 33.6584C35.7129 33.7756 35.8716 33.8416 36.0376 33.8416C36.2031 33.8416 36.3623 33.7756 36.4795 33.6584C36.5967 33.5413 36.6626 33.3823 36.6626 33.2166C36.6626 31.8931 37.7393 30.8164 39.0625 30.8164C39.228 30.8164 39.3872 30.7507 39.5044 30.6335C39.6216 30.5161 39.6875 30.3572 39.6875 30.1914C39.6875 30.0256 39.6216 29.8667 39.5044 29.7495C39.3872 29.6323 39.228 29.5664 39.0625 29.5664ZM13.5977 27.5222C12.2744 27.5222 11.1978 26.4456 11.1978 25.1221C11.1978 24.9563 11.1318 24.7974 11.0146 24.6802C10.8975 24.563 10.7388 24.4971 10.5728 24.4971C10.4072 24.4971 10.248 24.563 10.1309 24.6802C10.0137 24.7974 9.94775 24.9563 9.94775 25.1221C9.94775 26.4456 8.87109 27.5222 7.54785 27.5222C7.38232 27.5222 7.22314 27.5879 7.10596 27.7051C6.98877 27.8223 6.92285 27.9814 6.92285 28.1472C6.92285 28.313 6.98877 28.4719 7.10596 28.5891C7.22314 28.7063 7.38232 28.7722 7.54785 28.7722C8.87109 28.7722 9.94775 29.8486 9.94775 31.1721C9.94775 31.3379 10.0137 31.4968 10.1309 31.614C10.248 31.7312 10.4072 31.7971 10.5728 31.7971C10.7388 31.7971 10.8975 31.7312 11.0146 31.614C11.1318 31.4968 11.1978 31.3379 11.1978 31.1721C11.1978 29.8486 12.2744 28.7722 13.5977 28.7722C13.7637 28.7722 13.9229 28.7063 14.04 28.5891C14.1572 28.4719 14.2227 28.313 14.2227 28.1472C14.2227 27.9814 14.1572 27.8223 14.04 27.7051C13.9229 27.5879 13.7637 27.5222 13.5977 27.5222ZM17.7344 19.6267C18.4062 19.6501 19.1079 19.6631 19.8438 19.6631C20.5796 19.6631 21.2812 19.6501 21.9531 19.6267L21.9531 16.6113C21.4268 16.5786 20.9355 16.5583 20.4795 16.5583C20.2842 16.5583 20.0977 16.5623 19.9229 16.5698C19.8696 16.572 19.8159 16.572 19.7622 16.5696C19.5781 16.562 19.3936 16.5581 19.2085 16.5583C18.7524 16.5583 18.2612 16.5786 17.7344 16.6113L17.7344 19.6267ZM23.2031 19.5688C24.4453 19.4966 25.5674 19.3865 26.5781 19.2515L26.5781 16.9839C25.7754 16.9268 25 16.8594 24.2661 16.7954C23.8989 16.7632 23.5449 16.7324 23.2031 16.7041L23.2031 19.5688ZM27.8281 19.0637C28.9023 18.8831 29.8267 18.6763 30.6133 18.4644L30.6133 17.1228C30.4585 17.1248 30.3022 17.126 30.1445 17.126C29.3599 17.126 28.585 17.1011 27.8281 17.0618L27.8281 19.0637ZM27.8281 20.334L27.8281 20.8157C28.5771 20.5679 29.2681 20.2729 29.9072 19.9304C29.2725 20.0759 28.5801 20.2119 27.8281 20.334ZM23.2031 21.7161C24.4312 21.6045 25.5527 21.4248 26.5781 21.1731L26.5781 20.5154C25.5537 20.6475 24.4316 20.7532 23.2031 20.8223L23.2031 21.7161ZM31.8633 18.0894C32.1484 17.9946 32.4312 17.8926 32.7109 17.7832C32.9556 17.522 33.1875 17.2493 33.4058 16.9661C32.8931 17.019 32.3784 17.0583 31.8633 17.084L31.8633 18.0894L31.8633 18.0894ZM7.5376 17.9915C7.62939 18.0239 7.72559 18.0566 7.82422 18.0894L7.82422 17.084C7.29688 17.0574 6.78418 17.0183 6.28174 16.9661C6.5 17.2493 6.73193 17.522 6.97656 17.7832C7.15381 17.8523 7.33984 17.9219 7.5376 17.9915ZM13.1094 19.2515C14.1201 19.3865 15.2422 19.4966 16.4844 19.5688L16.4844 16.7041C16.1416 16.7327 15.7861 16.7634 15.418 16.7957C14.6851 16.8594 13.9111 16.9268 13.1094 16.9836L13.1094 19.2515ZM21.9531 20.8779C21.2788 20.9006 20.5771 20.9131 19.8438 20.9131C19.1104 20.9131 18.4087 20.9006 17.7344 20.8779L17.7344 21.8047C18.4082 21.8398 19.1094 21.8582 19.8438 21.8582C20.5781 21.8582 21.2793 21.8398 21.9531 21.8047L21.9531 20.8779ZM9.07422 18.4644C9.86084 18.6763 10.7852 18.8831 11.8594 19.0637L11.8594 17.0615C11.1025 17.1011 10.3276 17.126 9.54297 17.126C9.38477 17.126 9.229 17.1248 9.07422 17.1228L9.07422 18.4644ZM16.4844 20.8223C15.2559 20.7532 14.1338 20.6475 13.1094 20.5154L13.1094 21.1731C14.1348 21.4248 15.2563 21.6045 16.4844 21.7161L16.4844 20.8223ZM11.8594 20.8157L11.8594 20.334C11.1074 20.2119 10.415 20.0759 9.78027 19.9304C10.4194 20.2729 11.1104 20.5679 11.8594 20.8157Z" fill="#FFFFFF" fill-opacity="1.000000" fill-rule="nonzero"/>
	<path id="Vector" d="M37.5332 16.1809C36.7495 16.407 35.9307 16.5925 35.0918 16.7358C32.2319 21.2251 27.5957 23.1084 19.8433 23.1084C12.0913 23.1084 7.45508 21.2251 4.59521 16.7358C3.75586 16.5925 2.93701 16.407 2.15283 16.1807C1.48096 15.9856 0.819824 15.7561 0.171875 15.4932C0.502441 17.5576 1.46533 21.0188 4.26904 24.1504C5.0293 24.9993 5.91553 25.7429 6.92334 26.3796C7.12402 26.3086 7.33496 26.2722 7.54736 26.2725C8.18164 26.2725 8.69775 25.7566 8.69775 25.1223C8.69775 24.0884 9.53857 23.2473 10.5728 23.2473C11.6064 23.2473 12.4478 24.0884 12.4478 25.1223C12.4478 25.7566 12.9634 26.2725 13.5977 26.2725C14.6313 26.2725 15.4727 27.1135 15.4727 28.1475C15.4727 28.4541 15.3979 28.7434 15.2671 28.9993C16.8911 29.1707 18.4468 29.2031 19.8433 29.2031C22.0981 29.2031 24.7671 29.1196 27.4702 28.5007C30.8521 27.7266 33.5259 26.2629 35.4175 24.1504L35.4175 24.1504C38.2217 21.0188 39.1846 17.5576 39.5151 15.4932C38.8667 15.7561 38.2051 15.9858 37.5332 16.1809L37.5332 16.1809Z" fill="#FFFFFF" fill-opacity="1.000000" fill-rule="nonzero"/>
</svg>
