<svg width="30.000000" height="35.000000" viewBox="0 0 30 35" fill="none" xmlns="http://www.w3.org/2000/svg" xmlns:xlink="http://www.w3.org/1999/xlink">
	<desc>
			Created with Pixso.
	</desc>
	<defs/>
	<path id="Vector" d="M6.24609 8.75L8.75635 8.75C9.4502 8.75 10.0112 9.31006 10.0112 10L14.9487 10L14.1274 2.47754C13.9751 1.06494 12.8799 0 11.5825 0C10.4487 0 9.46387 0.797607 9.10742 2.0874L8.82373 3.57886C8.66748 4.40259 8.1123 5 7.50146 5C6.89111 5 6.33496 4.40259 6.17871 3.58008L5.87109 1.98364C5.5376 0.797607 4.55371 0 3.41992 0C2.12256 0 1.02734 1.06494 0.875 2.47632L0.0551758 10L4.99023 10C4.99023 9.31006 5.55273 8.75 6.24609 8.75ZM21.2461 8.75L23.7563 8.75C24.4502 8.75 25.0112 9.31006 25.0112 10L29.9487 10L29.1274 2.47754C28.9751 1.06494 27.8799 0 26.5825 0C25.4487 0 24.4639 0.797607 24.1074 2.0874L23.8237 3.57886C23.6675 4.40259 23.1123 5 22.5015 5C21.8911 5 21.335 4.40259 21.1787 3.58008L20.8711 1.98364C20.5376 0.797607 19.5537 0 18.4199 0C17.1226 0 16.0273 1.06494 15.875 2.47632L15.0552 10L19.9902 10C19.9902 9.31006 20.5527 8.75 21.2461 8.75ZM6.66016 15.6562C7.19727 15.3389 7.80615 15.3389 8.34229 15.6562C8.98291 16.0425 9.71582 16.2478 10.4639 16.25C11.6475 16.25 12.7739 15.7363 13.6348 14.8025C14.4976 13.8687 14.9614 12.605 15 11.25L10.0127 11.25L10.0127 12.5C10.0127 13.1899 9.4502 13.75 8.75635 13.75L6.24609 13.75C6.08154 13.7505 5.91846 13.7185 5.7666 13.656C5.61426 13.5935 5.47559 13.5015 5.35889 13.3853C5.24219 13.2693 5.1499 13.1313 5.08643 12.9795C5.02295 12.8274 4.99023 12.6646 4.99023 12.5L4.99023 11.25L0 11.25C0.0375977 12.5938 0.5 13.8638 1.36621 14.8025C2.76758 16.3201 4.92236 16.6812 6.66016 15.6562ZM21.6602 15.6562C22.1973 15.3389 22.8062 15.3389 23.3423 15.6562C23.9829 16.0425 24.7158 16.2478 25.4639 16.25C26.6475 16.25 27.7739 15.7363 28.6348 14.8025C29.4976 13.8687 29.9614 12.605 30 11.25L25.0127 11.25L25.0127 12.5C25.0127 13.1899 24.4502 13.75 23.7563 13.75L21.2461 13.75C21.0815 13.7505 20.9185 13.7185 20.7666 13.656C20.6143 13.5935 20.4756 13.5015 20.3589 13.3853C20.2422 13.2693 20.1499 13.1313 20.0864 12.9795C20.0229 12.8274 19.9902 12.6646 19.9902 12.5L19.9902 11.25L15 11.25C15.0376 12.5938 15.5 13.8638 16.3662 14.8025C17.7661 16.3201 19.9224 16.6812 21.6602 15.6562ZM8.75635 26.25L6.24609 26.25C6.08154 26.2505 5.91846 26.2185 5.7666 26.156C5.61426 26.0935 5.47559 26.0015 5.35889 25.8853C5.24219 25.7693 5.1499 25.6313 5.08643 25.4795C5.02295 25.3274 4.99023 25.1646 4.99023 25L0.0551758 25L0.875 32.5237C1.02734 33.9351 2.12256 35 3.41992 35C4.55371 35 5.53857 34.2024 5.87012 33.0164L6.17871 31.4199C6.33496 30.5974 6.89111 30 7.5 30C8.10986 30 8.66602 30.5974 8.82227 31.4211L9.10645 32.9138C9.46387 34.2 10.4502 35 11.5825 35C12.8799 35 13.9751 33.9351 14.1274 32.5225L14.9473 25L10.0127 25C10.0127 25.6899 9.44873 26.25 8.75635 26.25ZM23.7563 26.25L21.2461 26.25C21.0815 26.2505 20.9185 26.2185 20.7666 26.156C20.6143 26.0935 20.4756 26.0015 20.3589 25.8853C20.2422 25.7693 20.1499 25.6313 20.0864 25.4795C20.0229 25.3274 19.9902 25.1646 19.9902 25L15.0552 25L15.875 32.5237C16.0273 33.9351 17.1226 35 18.4199 35C19.5537 35 20.5386 34.2024 20.8701 33.0164L21.1787 31.4199C21.335 30.5974 21.8911 30 22.5 30C23.1099 30 23.666 30.5974 23.8223 31.4211L24.1064 32.9138C24.4639 34.2 25.4502 35 26.5825 35C27.8799 35 28.9751 33.9351 29.1274 32.5225L29.9473 25L25.0127 25C25.0127 25.6899 24.4502 26.25 23.7573 26.25L23.7563 26.25ZM10.4639 18.75C9.7251 18.75 9.01123 18.95 8.34229 19.3438C7.80518 19.6611 7.19629 19.6611 6.66016 19.3438C4.92236 18.3188 2.76758 18.6799 1.36621 20.1975C0.5 21.135 0.0375977 22.4062 0 23.75L4.99023 23.75L4.99023 22.5C4.99023 21.8101 5.55273 21.25 6.24609 21.25L8.75635 21.25C9.4502 21.25 10.0112 21.8101 10.0112 22.5L10.0112 23.75L15 23.75C14.9624 22.395 14.4976 21.1313 13.6348 20.1975C12.7749 19.2625 11.6475 18.75 10.4639 18.75ZM25.4639 18.75C24.7251 18.75 24.0112 18.95 23.3423 19.3438C22.8052 19.6611 22.1963 19.6611 21.6602 19.3438C19.9224 18.3188 17.7661 18.6799 16.3662 20.1975C15.5 21.135 15.0376 22.4062 15 23.75L19.9902 23.75L19.9902 22.5C19.9902 21.8101 20.5527 21.25 21.2461 21.25L23.7563 21.25C24.4502 21.25 25.0112 21.8101 25.0112 22.5L25.0112 23.75L30 23.75C29.9624 22.395 29.4976 21.1313 28.6348 20.1975C27.7749 19.2625 26.6475 18.75 25.4639 18.75Z" fill="#FFFFFF" fill-opacity="1.000000" fill-rule="nonzero"/>
</svg>
