<svg width="40.000000" height="40.000000" viewBox="0 0 40 40" fill="none" xmlns="http://www.w3.org/2000/svg" xmlns:xlink="http://www.w3.org/1999/xlink">
	<desc>
			Created with Pixso.
	</desc>
	<defs/>
	<path id="Vector" d="M27.8525 7.14819L27.8462 7.14819C26.7983 7.14819 25.2358 7.77783 23.8569 8.3335C22.5854 8.8457 21.4878 9.28809 20.7139 9.29102L20.7051 9.29102C19.9307 9.28809 18.833 8.8457 17.562 8.3335C16.1802 7.77661 14.6177 7.14746 13.5664 7.14819C11.228 7.15381 9.47217 8.00659 8.34814 9.68262C6.96631 11.7422 6.74023 14.9951 7.79785 17.5933C8.77734 19.9988 9.0127 21.8789 9.26221 23.8689C9.54541 26.1262 9.86621 28.6851 11.374 32.6062C12.5366 35.6279 14.645 36.4341 15.7075 36.4341C16.3896 36.4341 16.8711 36.0212 17.1553 35.675C17.9248 34.7363 18.1899 33.2034 17.8643 31.5745C16.96 27.053 17.7456 24.9143 18.564 23.916C19.1206 23.2371 19.8818 22.863 20.7075 22.863L20.7114 22.863C21.5371 22.863 22.2983 23.2371 22.8555 23.916C23.6733 24.9143 24.459 27.053 23.5547 31.5745C23.229 33.2031 23.4941 34.7361 24.2637 35.675C24.5479 36.0215 25.0293 36.4341 25.7114 36.4341C26.7739 36.4341 28.8828 35.6279 30.0449 32.6062C31.5527 28.6851 31.8735 26.1262 32.1567 23.8689C32.4062 21.8787 32.6421 19.9988 33.6211 17.5933C34.6787 14.9951 34.4521 11.7422 33.0708 9.68262C31.9463 8.00659 30.1909 7.15381 27.8525 7.14819ZM9.27881 14.2876C9.27393 12.4238 9.70166 11.0476 10.5498 10.197C11.1445 9.60083 11.9399 9.28564 12.8501 9.28564C13.0396 9.28564 13.2212 9.36108 13.3555 9.49487C13.4893 9.62891 13.5645 9.81055 13.5645 10C13.5645 10.1895 13.4893 10.3711 13.3555 10.5051C13.2212 10.6389 13.0396 10.7144 12.8501 10.7144C12.313 10.7144 11.8911 10.875 11.5615 11.2061C10.999 11.77 10.7036 12.8342 10.7075 14.2839C10.7075 14.3777 10.6895 14.4705 10.6538 14.5574C10.6182 14.644 10.5654 14.7229 10.4995 14.7896C10.4331 14.856 10.3545 14.9087 10.2681 14.9448C10.1816 14.981 10.0889 14.9998 9.99512 15L9.99316 15C9.80371 15 9.62256 14.925 9.48877 14.7915C9.35449 14.658 9.2793 14.4768 9.27881 14.2876ZM14.5576 32.8003C14.4717 32.8372 14.3789 32.8564 14.2847 32.8572C14.1909 32.8582 14.0981 32.8406 14.0112 32.8054C13.9238 32.7703 13.8447 32.7183 13.7778 32.6523C13.7109 32.5867 13.6577 32.5083 13.6211 32.4219C12.0435 28.7029 11.6123 25.8818 11.2314 23.3928C10.957 21.5964 10.6973 19.8999 10.0371 18.1038C9.97168 17.9258 9.97949 17.7292 10.0591 17.5574C10.1387 17.3855 10.2832 17.2522 10.4609 17.1868C10.6387 17.1213 10.835 17.1294 11.0073 17.2087C11.1792 17.2883 11.3125 17.4329 11.3779 17.6106C12.0879 19.542 12.3579 21.3076 12.6436 23.177C13.0293 25.7004 13.4282 28.3098 14.9365 31.8638C15.0103 32.0383 15.0122 32.2349 14.9409 32.4104C14.8701 32.5862 14.7319 32.7263 14.5576 32.8003ZM40 35C39.1211 35.5027 38.3926 36.2314 37.8901 37.1106C37.3877 37.9897 37.1294 38.9875 37.1431 40C37.1562 38.9875 36.8979 37.9897 36.396 37.1106C35.8936 36.2314 35.165 35.5027 34.2856 35C35.165 34.4973 35.8936 33.7686 36.396 32.8894C36.8979 32.0103 37.1562 31.0125 37.1431 30C37.1294 31.0125 37.3877 32.0103 37.8901 32.8894C38.3926 33.7686 39.1211 34.4973 40 35ZM5.71436 5C4.83496 5.50269 4.10645 6.23145 3.604 7.1106C3.10205 7.98975 2.84375 8.98755 2.85693 10C2.87061 8.98755 2.6123 7.98975 2.10986 7.1106C1.60742 6.23145 0.878906 5.50269 0 5C0.878906 4.49731 1.60742 3.76855 2.10986 2.8894C2.6123 2.01025 2.87061 1.01245 2.85693 0C2.84375 1.01245 3.10205 2.01025 3.604 2.8894C4.10645 3.76855 4.83496 4.49731 5.71436 5Z" fill="#FFFFFF" fill-opacity="1.000000" fill-rule="nonzero"/>
</svg>
