<svg width="19.569336" height="37.816650" viewBox="0 0 19.5693 37.8167" fill="none" xmlns="http://www.w3.org/2000/svg" xmlns:xlink="http://www.w3.org/1999/xlink">
	<desc>
			Created with Pixso.
	</desc>
	<defs/>
	<path id="Vector" d="M17.4927 30.8936C17.6851 30.6299 17.7383 30.3008 17.6387 29.9902C17.438 29.3647 17.3203 28.7158 17.2881 28.0598L17.1167 24.5603C17.1157 24.5371 17.1055 24.5149 17.0889 24.4988C17.0718 24.4827 17.0493 24.4736 17.0259 24.4736L2.54346 24.4736C2.52002 24.4736 2.49756 24.4827 2.48047 24.4988C2.46338 24.5149 2.45361 24.5371 2.45215 24.5603L2.28076 28.0598C2.24854 28.7207 2.11914 29.3713 1.92627 30.0042C1.83252 30.3108 1.88721 30.634 2.07666 30.8936C2.26855 31.157 2.56592 31.3081 2.89209 31.3081C3.14941 31.3081 3.39648 31.209 3.5874 31.0291C5.38867 29.3352 7.53125 28.4397 9.78467 28.4397C12.0376 28.4397 14.1807 29.3352 15.9814 31.0291C16.1729 31.209 16.4199 31.3081 16.6768 31.3081C17.0029 31.3081 17.3003 31.157 17.4927 30.8936ZM1.58008 8.97974C0.546387 11.0061 0 13.3606 0 15.7886C0 18.7402 0.817871 21.5906 2.30566 23.8418C2.31396 23.8545 2.3252 23.8647 2.33838 23.8718C2.35205 23.8792 2.3667 23.8828 2.38184 23.8828L17.1875 23.8828C17.2026 23.8828 17.2173 23.8792 17.2305 23.8718C17.2441 23.8647 17.2554 23.8545 17.2637 23.8418C18.7515 21.5906 19.5693 18.7402 19.5693 15.7886C19.5693 13.3606 19.0229 11.0063 17.9893 8.97998C17.0049 7.05103 15.6309 5.51123 14.0107 4.51782C13.9966 4.50903 13.9795 4.50415 13.9629 4.50415L5.60645 4.50415C5.58936 4.50415 5.57275 4.50903 5.55811 4.51782C3.93848 5.51099 2.56445 7.05078 1.58008 8.97974ZM12.6299 20.8606L6.93945 20.8606C6.77588 20.8606 6.64355 20.7283 6.64355 20.5652C6.64355 20.4019 6.77588 20.2698 6.93945 20.2698L12.6299 20.2698C12.793 20.2698 12.9253 20.4019 12.9253 20.5652C12.9253 20.7283 12.793 20.8606 12.6299 20.8606ZM12.6299 18.8389L6.93945 18.8389C6.77588 18.8389 6.64355 18.7065 6.64355 18.5435C6.64355 18.3801 6.77588 18.248 6.93945 18.248L12.6299 18.248C12.793 18.248 12.9253 18.3801 12.9253 18.5435C12.9253 18.7065 12.793 18.8389 12.6299 18.8389ZM12.6299 16.8171L6.93945 16.8171C6.77588 16.8171 6.64355 16.6848 6.64355 16.5217C6.64355 16.3584 6.77588 16.2263 6.93945 16.2263L12.6299 16.2263C12.793 16.2263 12.9253 16.3586 12.9253 16.5217C12.9253 16.6848 12.793 16.8171 12.6299 16.8171ZM14.0518 8.44287C15.0068 8.44287 15.7837 9.21973 15.7837 10.1746L15.7837 12.2659C15.7837 13.2207 15.0068 13.9976 14.0518 13.9976L5.51758 13.9976C4.5625 13.9976 3.78564 13.2207 3.78564 12.2659L3.78564 10.1746C3.78564 9.21973 4.5625 8.44287 5.51758 8.44287L14.0518 8.44287ZM7.73242 0.0913086L7.73242 1.30835C7.73242 1.33252 7.7417 1.35571 7.75879 1.3728C7.77588 1.39014 7.79932 1.39966 7.82324 1.39966L11.7456 1.39966C11.77 1.39966 11.793 1.39014 11.8101 1.3728C11.8271 1.35571 11.8369 1.33252 11.8369 1.30835L11.8369 0.0913086C11.8369 0.0668945 11.8271 0.0437012 11.8101 0.0266113C11.793 0.00952148 11.77 0 11.7456 0L7.82324 0C7.79932 0 7.77588 0.00952148 7.75879 0.0266113C7.7417 0.0437012 7.73242 0.0668945 7.73242 0.0913086Z" fill="#FFFFFF" fill-opacity="1.000000" fill-rule="nonzero"/>
	<path id="Vector" d="M4.37646 10.1743L4.37646 12.2654C4.37646 12.8945 4.88818 13.4062 5.51709 13.4062L14.0518 13.4062C14.6807 13.4062 15.1924 12.8945 15.1924 12.2654L15.1924 10.1743C15.1924 9.54517 14.6807 9.03345 14.0518 9.03345L5.51709 9.03345C4.88818 9.03345 4.37646 9.54517 4.37646 10.1743ZM5.79297 2.87646L5.79297 3.82178C5.79297 3.84595 5.80225 3.86914 5.81934 3.88623C5.83643 3.90356 5.85986 3.91309 5.88379 3.91309L13.6851 3.91309C13.7095 3.91309 13.7324 3.90356 13.7495 3.88623C13.7666 3.86914 13.7764 3.84595 13.7764 3.82178L13.7764 2.87646C13.7764 2.38696 13.3794 1.99023 12.8901 1.99023L6.6792 1.99023C6.18945 1.99023 5.79297 2.38696 5.79297 2.87646ZM7.01367 31.1243L3.52686 34.6108C3.25732 34.8806 3.25732 35.3181 3.52686 35.5879C3.66211 35.7227 3.83887 35.79 4.01562 35.79C4.19238 35.79 4.36914 35.7227 4.50391 35.5879L7.99072 32.1013C8.26025 31.8315 8.26025 31.394 7.99072 31.1243C7.7207 30.8545 7.2832 30.8545 7.01367 31.1243ZM9.09375 32.1948L9.09375 37.1255C9.09375 37.5071 9.40283 37.8164 9.78467 37.8164C10.166 37.8164 10.4751 37.5071 10.4751 37.1255L10.4751 32.1948C10.4751 31.8132 10.166 31.5039 9.78467 31.5039C9.40283 31.5039 9.09375 31.8132 9.09375 32.1948ZM11.5781 31.1243C11.3086 31.394 11.3086 31.8315 11.5781 32.1013L15.0649 35.5879C15.1997 35.7227 15.3765 35.79 15.5532 35.79C15.73 35.79 15.9072 35.7227 16.042 35.5879C16.3115 35.3181 16.3115 34.8806 16.042 34.6108L12.5552 31.1243C12.2856 30.8545 11.8481 30.8545 11.5781 31.1243Z" fill="#FFFFFF" fill-opacity="1.000000" fill-rule="nonzero"/>
</svg>
