<svg width="33.750000" height="16.552490" viewBox="0 0 33.75 16.5525" fill="none" xmlns="http://www.w3.org/2000/svg" xmlns:xlink="http://www.w3.org/1999/xlink">
	<desc>
			Created with Pixso.
	</desc>
	<defs/>
	<path id="Vector" d="M6.5625 11.248C7.66553 11.2488 8.74121 10.9028 9.63672 10.2593C9.74268 10.1836 9.86963 10.1431 10 10.1431C10.1304 10.1431 10.2573 10.1836 10.3633 10.2593C11.2642 10.8899 12.3369 11.2288 13.437 11.2297C14.5366 11.231 15.6104 10.8943 16.5127 10.2656C16.6182 10.1899 16.7451 10.1494 16.875 10.1494C17.0049 10.1494 17.1318 10.1899 17.2373 10.2656C18.1401 10.8933 19.2129 11.2297 20.3125 11.2297C21.4121 11.2297 22.4849 10.8933 23.3877 10.2656C23.4932 10.1902 23.6201 10.1497 23.75 10.1497C23.8799 10.1497 24.0068 10.1902 24.1123 10.2656C24.9028 10.8276 25.832 11.1626 26.7993 11.2341C27.7666 11.3057 28.7349 11.1108 29.5991 10.6709C30.4634 10.2307 31.1909 9.5625 31.7021 8.73853C32.2134 7.91431 32.4893 6.96606 32.5 5.99609L32.4551 5.96313C32.3003 5.84961 32.1357 5.74976 31.9639 5.66431C31.9326 5.64868 31.9019 5.63062 31.8701 5.61621C31.6709 5.52295 31.4634 5.44971 31.25 5.39746L31.25 5.93506C31.25 6.81592 30.9639 7.6731 30.4341 8.3772C29.9043 9.08105 29.1602 9.59375 28.314 9.83789C27.4673 10.082 26.5645 10.0444 25.7412 9.73071C24.918 9.41675 24.2192 8.84375 23.75 8.09814C23.3843 8.67969 22.8774 9.15894 22.2764 9.49121C21.6748 9.82349 20.9995 9.9978 20.3125 9.9978C19.6255 9.9978 18.9502 9.82349 18.3486 9.49121C17.7476 9.15894 17.2407 8.67969 16.875 8.09814C16.5093 8.67969 16.0024 9.15894 15.4014 9.49121C14.7998 9.82349 14.1245 9.9978 13.4375 9.9978C12.7505 9.9978 12.0752 9.82349 11.4736 9.49121C10.8726 9.15894 10.3657 8.67969 10 8.09814C9.53076 8.84375 8.83203 9.41675 8.00879 9.73047C7.18604 10.0444 6.2832 10.082 5.43652 9.83813C4.59033 9.59399 3.8457 9.0813 3.31641 8.37744C2.78662 7.67358 2.5 6.81641 2.5 5.93555L2.5 5.39819C2.28613 5.4502 2.07812 5.52344 1.87891 5.61694C1.84766 5.63062 1.81934 5.64819 1.78955 5.66235C1.61475 5.74878 1.44824 5.85034 1.29102 5.96558L1.25 5.99487C1.26758 7.39307 1.83447 8.72803 2.82861 9.71094C3.82324 10.6938 5.16455 11.2466 6.5625 11.248Z" fill="#FFFFFF" fill-opacity="1.000000" fill-rule="nonzero"/>
	<path id="Vector" d="M33.5723 7.427C33.3369 8.43945 32.8643 9.38159 32.1929 10.1755C31.5215 10.9695 30.6709 11.592 29.7109 11.9924C28.7515 12.3928 27.7104 12.5591 26.6743 12.4775C25.6377 12.3962 24.6353 12.0696 23.75 11.5244C22.7129 12.1509 21.5244 12.4819 20.3125 12.4819C19.1006 12.4819 17.9121 12.1509 16.875 11.5244C15.8379 12.1516 14.6489 12.4829 13.4365 12.4817C12.2246 12.4807 11.0361 12.1475 10 11.5181C8.96826 12.1599 7.77734 12.4993 6.5625 12.498C5.08252 12.4956 3.64648 11.9934 2.48779 11.073C1.32861 10.1523 0.514648 8.86743 0.177734 7.42627C0.0595703 7.74854 -0.000488281 8.08936 0 8.43262L0 14.6682C11.1099 17.1804 22.6401 17.1804 33.75 14.6682L33.75 8.43555C33.751 8.09155 33.6909 7.75 33.5723 7.427Z" fill="#FFFFFF" fill-opacity="1.000000" fill-rule="nonzero"/>
	<path id="Vector" d="M6.5625 8.74829C7.30811 8.74731 8.02295 8.45093 8.55029 7.92358C9.07764 7.39624 9.37402 6.6814 9.375 5.93579L9.375 0.281982C7.51904 -0.0939941 5.60596 -0.0939941 3.75 0.281982L3.75 5.93579C3.75098 6.6814 4.04736 7.39624 4.57471 7.92358C5.10205 8.45093 5.81689 8.74731 6.5625 8.74829ZM27.1875 8.74829C27.9331 8.74731 28.6479 8.45093 29.1753 7.92358C29.7026 7.39624 29.999 6.6814 30 5.93579L30 0.281982C28.144 -0.0939941 26.231 -0.0939941 24.375 0.281982L24.375 5.93579C24.376 6.6814 24.6724 7.39624 25.1997 7.92358C25.7271 8.45093 26.4419 8.74731 27.1875 8.74829ZM20.3125 8.74829C21.0581 8.74731 21.7729 8.45093 22.3003 7.92358C22.8276 7.39624 23.124 6.6814 23.125 5.93579L23.125 0.281982C21.269 -0.0939941 19.356 -0.0939941 17.5 0.281982L17.5 5.93579C17.501 6.6814 17.7974 7.39624 18.3247 7.92358C18.8521 8.45093 19.5669 8.74731 20.3125 8.74829ZM13.4375 8.74829C14.1831 8.74731 14.8979 8.45093 15.4253 7.92358C15.9526 7.39624 16.249 6.6814 16.25 5.93579L16.25 0.281982C14.394 -0.0939941 12.481 -0.0939941 10.625 0.281982L10.625 5.93579C10.626 6.6814 10.9224 7.39624 11.4497 7.92358C11.9771 8.45093 12.6919 8.74731 13.4375 8.74829Z" fill="#FFFFFF" fill-opacity="1.000000" fill-rule="nonzero"/>
</svg>
