<svg width="28.503906" height="13.322266" viewBox="0 0 28.5039 13.3223" fill="none" xmlns="http://www.w3.org/2000/svg" xmlns:xlink="http://www.w3.org/1999/xlink">
	<desc>
			Created with Pixso.
	</desc>
	<defs/>
	<path id="Vector 66" d="M1 5.66113L27.5 5.66113L27.5 7.66113L1 7.66113L1 5.66113ZM1.02002 7.64111L1 7.66113C0.439941 7.66113 0 7.22119 0 6.66113C0 6.10107 0.439941 5.66113 1 5.66113L1.02002 5.68115L1.02002 7.64111ZM26.0859 6.66113L21.1362 1.71143C20.7402 1.31543 20.7402 0.693115 21.1362 0.297119C21.5322 -0.098877 22.1543 -0.098877 22.5503 0.297119L28.207 5.9541C28.603 6.3501 28.603 6.97217 28.207 7.36816L22.5503 13.0251C22.1543 13.4211 21.5322 13.4211 21.1362 13.0251C20.7402 12.6292 20.7402 12.0068 21.1362 11.6108L26.0859 6.66113Z" fill="#FFFFFF" fill-opacity="1.000000" fill-rule="evenodd"/>
</svg>
