<svg width="22" height="23" viewBox="0 0 22 23" fill="none" xmlns="http://www.w3.org/2000/svg">
<g clip-path="url(#clip0_34_206)">
<path d="M11 4.94298C6.79667 4.94298 2.98487 7.24266 0.172146 10.978C-0.0573719 11.284 -0.0573719 11.7115 0.172146 12.0175C2.98487 15.7573 6.79667 18.057 11 18.057C15.2033 18.057 19.0151 15.7573 21.8279 12.022C22.0574 11.716 22.0574 11.2885 21.8279 10.9825C19.0151 7.24266 15.2033 4.94298 11 4.94298ZM11.3015 16.1174C8.51131 16.2929 6.20713 13.9932 6.38264 11.1985C6.52665 8.89429 8.3943 7.02664 10.6985 6.88263C13.4887 6.70712 15.7929 9.0068 15.6174 11.8015C15.4689 14.1012 13.6012 15.9689 11.3015 16.1174ZM11.162 13.9842C9.6589 14.0787 8.4168 12.8411 8.51581 11.338C8.59232 10.0959 9.6004 9.09231 10.8425 9.0113C12.3456 8.91679 13.5877 10.1544 13.4887 11.6575C13.4077 12.9041 12.3996 13.9077 11.162 13.9842Z" fill="white"/>
</g>
<defs>
<clipPath id="clip0_34_206">
<rect width="22" height="22" fill="white" transform="translate(0 0.5)"/>
</clipPath>
</defs>
</svg>
