<svg width="16" height="20" viewBox="0 0 16 20" fill="none" xmlns="http://www.w3.org/2000/svg">
<path fill-rule="evenodd" clip-rule="evenodd" d="M8.01884 0.831543C6.02623 0.834041 4.1159 1.6265 2.70661 3.03519C1.29732 4.44389 0.504066 6.35389 0.500732 8.3465C0.500732 11.2221 2.31805 13.8426 4.05034 15.789C5.78262 17.7355 7.5149 19.0331 7.5149 19.0331C7.65938 19.1415 7.8351 19.2 8.01569 19.2C8.19629 19.2 8.37201 19.1415 8.51648 19.0331C8.51648 19.0331 10.2488 17.7355 11.981 15.789C13.7133 13.8426 15.5307 11.2221 15.5307 8.3465C15.529 6.35392 14.7367 4.44343 13.3277 3.03447C11.9188 1.6255 10.0114 0.833211 8.01884 0.831543ZM8.01569 5.00792C8.90114 5.00792 9.75032 5.35966 10.3764 5.98577C11.0025 6.61188 11.3543 7.46106 11.3543 8.3465C11.3543 9.23195 11.0025 10.0811 10.3764 10.7072C9.75032 11.3333 8.90114 11.6851 8.01569 11.6851C7.13025 11.6851 6.28106 11.3333 5.65496 10.7072C5.02885 10.0811 4.67711 9.23195 4.67711 8.3465C4.67711 7.46106 5.02885 6.61188 5.65496 5.98577C6.28106 5.35966 7.13025 5.00792 8.01569 5.00792Z" fill="#92D3F2"/>
</svg>
