<svg width="20" height="20" viewBox="0 0 20 20" fill="none" xmlns="http://www.w3.org/2000/svg">
<g clip-path="url(#clip0_34_182)">
<path fill-rule="evenodd" clip-rule="evenodd" d="M19.6522 16.8329C19.526 16.952 19.3739 17.1044 19.2126 17.2655C18.81 17.6703 18.3071 18.1734 17.992 18.3775C16.3336 19.4511 14.115 18.9374 12.5457 18.3179C10.4755 17.5007 8.22162 15.9944 6.19787 14.0768C4.17224 12.1591 2.58247 10.023 1.71991 8.06281C1.06681 6.57569 0.523443 4.47333 1.65682 2.90183C1.87205 2.603 2.40436 2.12729 2.83102 1.74518C3.00172 1.59281 3.16128 1.44884 3.28745 1.3297C3.51144 1.11854 3.81457 1 4.13055 1C4.44653 1 4.74966 1.11854 4.97365 1.3297L8.02495 4.21971C8.2477 4.43191 8.37274 4.71902 8.37274 5.0183C8.37274 5.31759 8.2477 5.6047 8.02495 5.8169L7.19373 6.60283C6.91614 6.8639 6.73494 7.20292 6.67711 7.56943C6.61928 7.93594 6.68791 8.31034 6.87279 8.63691C8.01607 10.6813 9.78108 12.3532 11.9391 13.436C12.2837 13.6111 12.6788 13.6761 13.0656 13.6212C13.4523 13.5663 13.81 13.3945 14.0853 13.1315L14.9145 12.3455C15.1385 12.1343 15.4416 12.0158 15.7576 12.0158C16.0736 12.0158 16.3767 12.1343 16.6007 12.3455L19.6522 15.236C19.875 15.4481 20 15.7352 20 16.0344C20 16.3337 19.875 16.6207 19.6522 16.8329Z" fill="#92D3F2"/>
</g>
<defs>
<clipPath id="clip0_34_182">
<rect width="20" height="20" fill="white"/>
</clipPath>
</defs>
</svg>
