<svg width="19" height="19" viewBox="0 0 19 19" fill="none" xmlns="http://www.w3.org/2000/svg">
<path fill-rule="evenodd" clip-rule="evenodd" d="M18.6522 16.3329C18.526 16.452 18.3739 16.6044 18.2126 16.7655C17.81 17.1703 17.3071 17.6734 16.992 17.8775C15.3336 18.9511 13.115 18.4374 11.5457 17.8179C9.4755 17.0007 7.22162 15.4944 5.19787 13.5768C3.17224 11.6591 1.58247 9.52303 0.719905 7.56281C0.0668103 6.07569 -0.476557 3.97333 0.656822 2.40183C0.872047 2.103 1.40436 1.62729 1.83102 1.24518C2.00172 1.09281 2.16128 0.948843 2.28745 0.829698C2.51144 0.618539 2.81457 0.5 3.13055 0.5C3.44653 0.5 3.74966 0.618539 3.97365 0.829698L7.02495 3.71971C7.2477 3.93191 7.37274 4.21902 7.37274 4.5183C7.37274 4.81759 7.2477 5.1047 7.02495 5.3169L6.19373 6.10283C5.91614 6.3639 5.73494 6.70292 5.67711 7.06943C5.61928 7.43594 5.68791 7.81034 5.87279 8.13691C7.01607 10.1813 8.78108 11.8532 10.9391 12.936C11.2837 13.1111 11.6788 13.1761 12.0656 13.1212C12.4523 13.0663 12.81 12.8945 13.0853 12.6315L13.9145 11.8455C14.1385 11.6343 14.4416 11.5158 14.7576 11.5158C15.0736 11.5158 15.3767 11.6343 15.6007 11.8455L18.6522 14.736C18.875 14.9481 19 15.2352 19 15.5344C19 15.8337 18.875 16.1207 18.6522 16.3329Z" fill="#92D3F2"/>
</svg>
