<svg width="89" height="89" viewBox="0 0 89 89" fill="none" xmlns="http://www.w3.org/2000/svg">
<g clip-path="url(#clip0_39_360)">
<path d="M59.3826 77.2388C50.5805 86.3248 38.456 86.2935 29.6798 77.1675C20.697 87.4248 7.76926 85.9594 0.000701904 74.3094V79.4395C0.000701904 84.7113 4.28939 89 9.56125 89H79.4388C84.7106 89 88.9986 84.7113 88.9986 79.4395V74.3094C81.1642 86.062 68.2745 87.3113 59.3826 77.2388Z" fill="#C8DCE5"/>
<path d="M15.935 78.8154C20.0307 78.8154 23.6234 76.411 26.3544 73.0148C21.4213 65.6309 19.1901 55.1056 24.9414 48.3399C22.0624 47.3579 18.6849 47.2135 15.935 47.2135C12.6607 47.2135 8.49687 47.417 5.34223 48.9985C1.21868 51.0667 -0.322827 55.0138 0.0547281 59.6107C0.697892 67.795 7.16743 78.8154 15.935 78.8154ZM83.6574 48.9985C80.5019 47.417 76.3389 47.2133 73.0639 47.2133C70.3472 47.2133 67.0166 47.3546 64.1606 48.3053C69.9521 55.0703 67.7323 65.6554 62.7165 73.1036C65.44 76.4533 69.0056 78.8156 73.0639 78.8156C82.3088 78.8156 88.9984 66.5624 88.9984 58.3016C88.9984 52.826 86.0943 50.2207 83.6574 48.9983V48.9985ZM26.7415 58.3023C26.7415 66.9124 34.5379 78.8154 44.5657 78.8154C54.5921 78.8154 62.3898 66.9136 62.3898 58.3023C62.3898 47.2133 49.8994 47.2133 44.5655 47.2133C39.2316 47.2133 26.7415 47.2133 26.7415 58.3023ZM79.4386 0H9.56104C4.28918 0 0.00118904 4.28869 0.00118904 9.56055V14.6906C7.86552 2.89198 20.7608 1.7282 29.6172 11.7612C38.4193 2.67522 50.5438 2.7065 59.32 11.8325C68.0855 1.8238 81.0465 2.75605 88.9984 14.6906V9.56055C88.9984 4.28869 84.7104 0 79.4386 0Z" fill="#C8DCE5"/>
<path d="M15.9352 10.1846C6.6903 10.1846 0.000701904 22.4374 0.000701904 30.6984C0.000701904 36.174 2.90537 38.7793 5.34244 40.0017C8.49725 41.583 12.6603 41.7867 15.9352 41.7867C18.6539 41.7867 21.9825 41.6454 24.8385 40.6948C19.0477 33.9297 21.2675 23.3446 26.2833 15.8964C23.5591 12.5468 19.9942 10.1846 15.9352 10.1846ZM73.0641 10.1846C68.9691 10.1846 65.3764 12.589 62.6433 15.9853C67.5792 23.3724 69.8097 33.8944 64.0583 40.6602C66.9374 41.6421 70.3142 41.7866 73.0643 41.7866C76.3392 41.7866 80.5021 41.583 83.6574 40.0015C87.7811 37.9333 89.3219 33.9869 88.9451 29.3893C88.3019 21.205 81.8324 10.1846 73.0641 10.1846ZM44.4334 10.1846C34.4547 10.1846 26.6093 22.0348 26.6093 30.6977C26.6093 41.7867 39.1006 41.7867 44.4336 41.7867C49.7672 41.7867 62.2576 41.7867 62.2576 30.6977C62.2583 22.0307 54.4103 10.1846 44.4334 10.1846Z" fill="#C8DCE5"/>
</g>
<defs>
<clipPath id="clip0_39_360">
<rect width="89" height="89" fill="white"/>
</clipPath>
</defs>
</svg>
