<svg width="101" height="101" viewBox="0 0 101 101" fill="none" xmlns="http://www.w3.org/2000/svg">
<path fill-rule="evenodd" clip-rule="evenodd" d="M69.4634 63.0732C61.0615 63.0732 53.133 59.7598 47.157 53.843C41.2402 47.867 37.9268 39.9385 37.9268 31.5366C37.9268 23.0756 41.2402 15.2062 47.157 9.23023C53.133 3.25425 61.0615 0 69.4634 0C77.8653 0 85.7938 3.25425 91.7698 9.23023C97.6866 15.2062 101 23.0756 101 31.5366C101 39.9385 97.6866 47.867 91.7698 53.7838C85.7938 59.7598 77.8653 63.0732 69.4634 63.0732ZM69.4634 6.44933C62.7774 6.44933 56.5056 9.11189 51.7721 13.7862C47.0387 18.5196 44.4353 24.8506 44.4353 31.5366C44.4353 38.2226 47.0387 44.4944 51.7721 49.2279C56.5056 53.9613 62.7774 56.5647 69.4634 56.5647C76.1494 56.5647 82.4212 53.9613 87.1547 49.2279C91.8881 44.4944 94.4915 38.2226 94.4915 31.5366C94.4915 24.8506 91.8881 18.5196 87.1547 13.7862C82.4212 9.11189 76.1494 6.44933 69.4634 6.44933Z" fill="#C8DCE5"/>
<path fill-rule="evenodd" clip-rule="evenodd" d="M35.9742 66.15C35.6784 66.15 35.3825 66.0316 35.1459 65.8541C34.6725 65.3808 34.6725 64.6116 35.1459 64.1382L47.157 52.1271C47.6303 51.6538 48.3995 51.6538 48.8137 52.1271C49.2871 52.6004 49.2871 53.3696 48.8137 53.843L36.8026 65.8541C36.6251 66.0316 36.2701 66.15 35.9742 66.15Z" fill="#C8DCE5"/>
<path fill-rule="evenodd" clip-rule="evenodd" d="M14.5554 101C12.8987 101 11.3011 100.349 10.1178 99.1657L1.83421 90.823C0.650849 89.6988 0 88.1013 0 86.4446C0 84.7879 0.650849 83.1903 1.83421 82.0662L23.8448 59.9964C25.0281 58.8131 26.6257 58.1622 28.2824 58.1622C29.9391 58.1622 31.4774 58.8131 32.6608 59.9964L41.0035 68.3391C43.4294 70.765 43.4294 74.6701 41.0035 77.096L18.9338 99.1657C17.7504 100.349 16.2121 101 14.5554 101ZM15.6204 91.8289C13.8453 91.8289 12.2478 91.178 11.0053 89.9355C9.82191 88.7522 9.11189 87.0954 9.11189 85.3796C9.11189 83.6637 9.82191 82.007 11.0053 80.8236C12.2478 79.5811 13.8453 78.9302 15.6204 78.9302C17.3363 78.9302 18.9338 79.5811 20.1763 80.8236C21.4189 82.007 22.0697 83.6637 22.0697 85.3796C22.0697 87.0954 21.4189 88.7522 20.1763 89.9355C18.9338 91.178 17.3363 91.8289 15.6204 91.8289ZM61.4165 49.2278C61.0023 49.2278 60.5882 48.9912 60.4698 48.577C57.5706 41.6543 57.2748 33.43 57.3931 28.8148C55.7364 27.1581 54.7897 24.9097 54.7897 22.6022C54.7897 17.7504 58.754 13.7861 63.5466 13.7861C65.7358 13.7861 67.8659 14.6145 69.4634 16.0937C71.0609 14.6145 73.1318 13.7861 75.321 13.7861C80.1728 13.7861 84.1371 17.7504 84.1371 22.6022C84.1371 24.9097 83.1904 27.1581 81.5337 28.8148C81.652 33.43 81.3562 41.6543 78.4569 48.577C78.2794 49.0503 77.8061 49.287 77.3327 49.2278C76.9186 49.1687 76.5044 48.7545 76.5044 48.2812C75.6169 39.9976 72.3626 36.27 69.4634 36.27C66.5641 36.27 63.3099 39.9976 62.4224 48.2812C62.3632 48.7545 62.0082 49.1687 61.5349 49.2278H61.4165Z" fill="#C8DCE5"/>
</svg>
