<svg width="104" height="92" viewBox="0 0 104 92" fill="none" xmlns="http://www.w3.org/2000/svg">
<path d="M30.6719 18.5312H73.3281V24.6249H91.4515C89.8676 9.35174 76.3703 0.244222 64.1414 0.244222C59.9075 0.244222 55.7956 1.20703 52 3.09955C48.2044 1.20703 44.0925 0.244019 39.8588 0.244019C25.429 0.244019 14.0601 11.1963 12.5627 24.6249H30.6719V18.5312ZM73.3281 42.9062V48.9999H30.6719V42.9062H16.288C17.4157 46.0694 18.3653 49.6983 18.4285 54.8818C18.4976 60.5427 15.0883 90.8487 39.7625 91.6562L42.8076 91.7559L42.9073 88.7109C43.5075 70.3849 49.0602 61.1876 52 61.1876C54.9398 61.1876 60.4925 70.3849 61.0927 88.7109L61.1924 91.7559L64.2375 91.6562C72.462 91.387 82.1943 85.8277 84.4192 74.769C86.7915 62.9798 83.6483 55.145 87.6915 42.9062H73.3281ZM67.2344 30.7187V24.6249H36.7656V30.7187H0V36.8124H36.7656V42.9062H67.2344V36.8124H104V30.7187H67.2344Z" fill="#C8DCE5"/>
</svg>
