<svg width="113" height="113" viewBox="0 0 113 113" fill="none" xmlns="http://www.w3.org/2000/svg">
<path d="M67.1293 25.7633H58.029V18.436C58.029 16.6077 56.5468 15.1254 54.7185 15.1254H54.483V6.62109H54.7185C59.1109 6.44608 59.1076 0.173252 54.7185 0H33.4427C29.0503 0.175018 29.0536 6.44784 33.4427 6.62109H33.678V15.1254H33.4427C31.6144 15.1254 30.1322 16.6077 30.1322 18.436V53.8957C30.1322 55.724 31.6144 57.2063 33.4427 57.2063H54.7185C56.5468 57.2063 58.029 55.724 58.029 53.8957V46.5684H67.1293C88.6264 47.4207 88.5818 78.0947 67.1293 78.9528H22.8046C20.9763 78.9528 19.494 80.435 19.494 82.2633V99.7578H67.1291C87.5293 99.7578 104.126 83.1609 104.126 62.7607V62.7589C104.126 42.3596 87.5295 25.7633 67.1293 25.7633ZM54.7183 46.5684C48.9824 46.5684 44.3159 41.9018 44.3159 36.166C44.8873 22.3656 64.5515 22.3696 65.1209 36.166C65.1209 41.9018 60.4541 46.5684 54.7183 46.5684Z" fill="#C8DCE5"/>
<path d="M51.1722 70.4484C53.0005 70.4484 54.4828 68.9662 54.4828 67.1379V63.8273H33.6778V67.1379C33.6778 68.9662 35.16 70.4484 36.9883 70.4484H51.1722ZM75.9941 106.379H12.1667C7.77428 106.554 7.77759 112.827 12.1667 113H75.9941C80.3865 112.825 80.3832 106.552 75.9941 106.379ZM54.7183 32.3844C52.6333 32.3844 50.937 34.0807 50.937 36.1657C51.1446 41.1823 58.2928 41.1807 58.4998 36.1657C58.4998 34.0807 56.8033 32.3844 54.7183 32.3844Z" fill="#C8DCE5"/>
</svg>
