<svg width="72" height="104" viewBox="0 0 72 104" fill="none" xmlns="http://www.w3.org/2000/svg">
<path d="M55.1925 0.250029C50.8944 0.116719 46.6065 0.741254 42.525 2.09503C38.3176 3.67044 33.6824 3.67044 29.475 2.09503C25.3935 0.741254 21.1056 0.116719 16.8075 0.250029C1.07288e-06 0.250029 0 16.2925 0 20.86C0 33.37 8.37 40.12 10.035 50.47C10.2075 51.5348 10.7568 52.5023 11.5827 53.1961C12.4087 53.8899 13.4564 54.2639 14.535 54.25H57.5325C58.6111 54.2639 59.6588 53.8899 60.4848 53.1961C61.3107 52.5023 61.86 51.5348 62.0325 50.47C63.6075 40.2325 72 33.235 72 20.86C72 16.2925 72 0.250029 55.1925 0.250029ZM21.24 95.2C27.6525 100.555 30.24 103.75 36 103.75C41.76 103.75 44.55 100.375 50.76 95.2C51.5711 94.5226 52.2566 93.7077 52.785 92.7925C15.75 94.75 19.935 94.0975 21.24 95.2ZM58.5 83.5L54 83.725V81.475L18 83.275V85.525L13.5 85.75C13.2045 85.7648 12.9149 85.8376 12.6475 85.9643C12.3802 86.0911 12.1404 86.2692 11.942 86.4886C11.7435 86.708 11.5901 86.9643 11.4907 87.2429C11.3913 87.5216 11.3477 87.817 11.3625 88.1125C11.3773 88.408 11.4501 88.6977 11.5768 88.965C11.7035 89.2323 11.8817 89.4721 12.1011 89.6706C12.5441 90.0714 13.1283 90.2799 13.725 90.25L58.725 88C59.3217 87.9702 59.8822 87.7045 60.283 87.2615C60.6839 86.8184 60.8923 86.2343 60.8625 85.6375C60.8327 85.0408 60.567 84.4803 60.1239 84.0795C59.6809 83.6786 59.0967 83.4702 58.5 83.5ZM58.5 72.25L54 72.475V70.225L18 72.025V74.275L13.5 74.5C13.2045 74.5148 12.9149 74.5876 12.6475 74.7143C12.3802 74.8411 12.1404 75.0192 11.942 75.2386C11.7435 75.458 11.5901 75.7143 11.4907 75.9929C11.3913 76.2716 11.3477 76.567 11.3625 76.8625C11.3773 77.158 11.4501 77.4477 11.5768 77.715C11.7035 77.9823 11.8817 78.2221 12.1011 78.4206C12.5441 78.8214 13.1283 79.0299 13.725 79L58.725 76.75C59.3217 76.7202 59.8822 76.4545 60.283 76.0115C60.6839 75.5684 60.8923 74.9843 60.8625 74.3875C60.8327 73.7908 60.567 73.2303 60.1239 72.8295C59.6809 72.4286 59.0967 72.2202 58.5 72.25ZM58.5 61L54 61.225V58.75H18V63.025L13.5 63.25C12.9033 63.2799 12.3428 63.5455 11.942 63.9886C11.5411 64.4316 11.3327 65.0158 11.3625 65.6125C11.3923 66.2093 11.658 66.7697 12.1011 67.1706C12.5441 67.5714 13.1283 67.7799 13.725 67.75L58.725 65.5C59.3217 65.4702 59.8822 65.2045 60.283 64.7615C60.6839 64.3184 60.8923 63.7343 60.8625 63.1375C60.8327 62.5408 60.567 61.9804 60.1239 61.5795C59.6809 61.1786 59.0967 60.9702 58.5 61Z" fill="#C8DCE5"/>
</svg>
