<svg width="93" height="93" viewBox="0 0 93 93" fill="none" xmlns="http://www.w3.org/2000/svg">
<path d="M34.0586 26.3914L31.1653 27.962C30.9793 28.0654 30.8346 28.21 30.7313 28.396L29.1606 31.2894L27.59 28.4167C27.4866 28.2307 27.342 28.086 27.156 27.9827L24.2833 26.412L27.156 24.8414C27.342 24.738 27.4866 24.5934 27.59 24.4074L29.1606 21.514L30.7313 24.4074C30.8346 24.5934 30.9793 24.738 31.1653 24.8414L34.0586 26.3914ZM19.84 14.2187L14.3633 17.2154C14.1773 17.3187 14.0326 17.4634 13.9293 17.6494L10.9533 23.1054L7.95665 17.6287C7.85332 17.4427 7.70865 17.298 7.52265 17.1947L2.06665 14.2187L7.54332 11.222C7.72932 11.1187 7.87398 10.974 7.97732 10.788L10.9533 5.33203L13.702 10.354C13.7226 10.3747 13.7226 10.416 13.7433 10.4367L13.95 10.8087C14.0533 10.9947 14.198 11.1394 14.384 11.2427L19.84 14.2187Z" fill="#C8DCE5"/>
<path d="M87.854 11.532C85.4153 8.43202 81.9433 6.59269 78.058 6.36536C72.3333 6.38602 64.2733 9.23802 59.21 11.8834L56.978 13.0407C53.4027 14.9007 49.1246 14.9007 45.5493 13.0407L43.3173 11.8834C38.2333 9.23802 30.1733 6.38602 24.428 6.36536C21.3693 6.55136 18.5173 7.75002 16.244 9.79602L22.568 13.268C22.9193 13.454 23.126 13.826 23.126 14.2187C23.126 14.6114 22.9193 14.9627 22.568 15.1694L15.6446 18.9514L12.2346 25.172C12.586 26.7427 13.3093 29.9874 14.384 34.3894C14.7766 34.3894 15.128 34.6167 15.2933 34.9474L17.67 39.2667L21.9893 41.6434C22.3406 41.8294 22.5473 42.2014 22.5473 42.594C22.5473 42.9867 22.3406 43.338 21.9893 43.5447L17.7113 45.88L17.4426 46.3554C21.1213 60.264 26.474 78.2027 31.2893 85.684C31.682 86.304 32.24 86.8 32.8807 87.1514C33.542 87.5027 34.2653 87.6887 35.0093 87.6887C37.138 87.6887 39.0187 86.3247 39.68 84.2994L47.7193 59.6854C48.236 58.1147 49.6207 57.1227 51.2533 57.1227C52.886 57.1227 54.2913 58.1354 54.7873 59.6854L62.8266 84.2787C63.1573 85.2707 63.7773 86.118 64.604 86.738C65.4513 87.358 66.4433 87.668 67.4973 87.668C69.0266 87.668 70.4113 86.924 71.2173 85.6634C80.1453 71.858 90.582 23.622 90.6853 22.9814V22.94C91.4293 18.9307 90.396 14.7767 87.854 11.532ZM36.8073 27.3214L32.488 29.698L30.1113 34.0174C29.9253 34.3687 29.5533 34.5754 29.1607 34.5754C28.768 34.5754 28.4167 34.3687 28.21 34.0174L25.8333 29.698L21.514 27.3214C21.1626 27.1354 20.956 26.7634 20.956 26.3707C20.956 25.978 21.1626 25.6267 21.514 25.42L25.8333 23.0434L28.21 18.724C28.396 18.3727 28.768 18.166 29.1607 18.166C29.5533 18.166 29.9046 18.3727 30.1113 18.724L32.488 23.0434L36.8073 25.42C37.1587 25.606 37.3653 25.978 37.3653 26.3707C37.3653 26.784 37.1587 27.1354 36.8073 27.3214Z" fill="#C8DCE5"/>
<path d="M19.282 42.5734L16.4093 44.1441C16.2233 44.2474 16.0787 44.3921 15.9753 44.5781L15.3967 45.6321L15.314 45.7974L14.4047 47.4714L12.8133 44.5781C12.71 44.3921 12.5653 44.2474 12.3793 44.1441L9.50665 42.5734L12.3793 41.0027C12.5653 40.8994 12.71 40.7547 12.8133 40.5687L14.384 37.6754L15.9547 40.5687C16.058 40.7547 16.2027 40.8994 16.3887 41.0027L19.282 42.5734Z" fill="#C8DCE5"/>
</svg>
