<svg width="20" height="20" viewBox="0 0 20 20" fill="none" xmlns="http://www.w3.org/2000/svg">
<path d="M17.2477 0.499583C15.7201 -0.3544 13.9318 0.268268 12.3553 0.81763C11.4118 1.14659 10.5202 1.45633 9.76195 1.45633C9.01863 1.45633 8.12278 1.12737 7.17401 0.779141C5.54357 0.180571 3.69786 -0.495508 2.22856 0.528606C-1.07242 2.83172 -0.174544 10.5149 1.51755 15.2352C2.15596 17.0141 3.49849 20 5.33038 20C7.08188 20 7.35131 18.171 7.61197 16.4023C7.93333 14.2192 8.25589 12.7886 9.76195 12.7886C11.2678 12.7886 11.5904 14.2192 11.9117 16.4023C12.1724 18.171 12.4418 20 14.1935 20C16.2362 20 18.0731 16.2665 19.0264 13.0692C20.3908 8.48977 20.7434 2.44939 17.2477 0.499631V0.499583Z" fill="white"/>
</svg>
