<svg width="102" height="113" viewBox="0 0 102 113" fill="none" xmlns="http://www.w3.org/2000/svg">
<mask id="mask0_34_178" style="mask-type:luminance" maskUnits="userSpaceOnUse" x="0" y="0" width="102" height="113">
<path d="M102 0H0V112.958H102V0Z" fill="white"/>
</mask>
<g mask="url(#mask0_34_178)">
<mask id="mask1_34_178" style="mask-type:luminance" maskUnits="userSpaceOnUse" x="0" y="65" width="102" height="48">
<path d="M0.42395 65.7685H101.661V112.958H0.42395V65.7685Z" fill="white"/>
</mask>
<g mask="url(#mask1_34_178)">
<mask id="mask2_34_178" style="mask-type:luminance" maskUnits="userSpaceOnUse" x="0" y="65" width="102" height="48">
<path fill-rule="evenodd" clip-rule="evenodd" d="M101.618 65.7685H74.6983L79.404 77.7034L71.1796 91.712L51.5511 94.8861L29.3791 91.712L22.0025 78.7614L28.1072 65.7685H0.42395C14.7107 81.5828 42.6484 112.958 51.5511 112.958C59.5931 112.958 87.302 81.844 101.33 66.0919L101.618 65.7685Z" fill="white"/>
</mask>
<g mask="url(#mask2_34_178)">
<path d="M74.6982 65.7685V56.4577H61.0039L66.0198 69.1788L74.6982 65.7685ZM101.618 65.7685L108.589 71.9552L122.391 56.4577H101.618V65.7685ZM0.423918 65.7685V56.4577H-20.5469L-6.5022 72.0044L0.423918 65.7685ZM28.1072 65.7685L36.5513 69.7223L42.7835 56.4577H28.1072V65.7685ZM29.379 91.712L21.2715 96.3149L23.5306 100.281L28.0552 100.929L29.379 91.712ZM51.5511 94.8861L50.2273 104.103L51.6369 104.304L53.0425 104.078L51.5511 94.8861ZM71.1795 91.712L72.671 100.903L77.0057 100.202L79.2261 96.4199L71.1795 91.712ZM79.404 77.7034L87.4504 82.4114L89.7439 78.5058L88.0829 74.2931L79.404 77.7034ZM22.0025 78.7614L13.5584 74.8076L11.5077 79.1727L13.895 83.3639L22.0025 78.7614ZM74.6982 75.0794H101.618V56.4577H74.6982V75.0794ZM94.648 59.5819L94.3597 59.9056L108.301 72.2785L108.589 71.9552L94.648 59.5819ZM94.3597 59.9056C87.3155 67.8156 77.0504 79.3387 67.5743 88.8747C62.8183 93.6605 58.4507 97.753 54.9112 100.589C53.1296 102.016 51.7664 102.956 50.8175 103.494C49.5549 104.21 50.0197 103.647 51.5511 103.647V122.269C55.093 122.269 58.1828 120.733 60.0299 119.686C62.1903 118.461 64.4206 116.847 66.5867 115.112C70.9427 111.621 75.8872 106.95 80.8172 101.989C90.7138 92.0302 101.317 80.1204 108.301 72.2785L94.3597 59.9056ZM51.5511 103.647C52.8146 103.647 53.0865 104.073 51.826 103.391C50.8129 102.844 49.3887 101.897 47.5522 100.467C43.897 97.6201 39.433 93.5107 34.5862 88.6944C24.9221 79.0914 14.5577 67.5114 7.35004 59.5326L-6.5022 72.0044C0.576935 79.8403 11.3248 91.8542 21.4268 101.892C26.4631 106.896 31.5458 111.619 36.0792 115.149C38.3371 116.908 40.6678 118.536 42.9425 119.766C44.9694 120.862 48.0619 122.269 51.5511 122.269V103.647ZM0.423918 75.0794H28.1072V56.4577H0.423918V75.0794ZM28.0552 100.929L50.2273 104.103L52.8749 85.6692L30.7028 82.4953L28.0552 100.929ZM53.0425 104.078L72.671 100.903L69.6881 82.5208L50.0597 85.6946L53.0425 104.078ZM79.2261 96.4199L87.4504 82.4114L71.3574 72.9954L63.133 87.0041L79.2261 96.4199ZM88.0829 74.2931L83.3767 62.3583L66.0198 69.1788L70.7255 81.1136L88.0829 74.2931ZM19.6632 61.8147L13.5584 74.8076L30.4465 82.7152L36.5513 69.7223L19.6632 61.8147ZM13.895 83.3639L21.2715 96.3149L37.4865 87.109L30.11 74.1589L13.895 83.3639Z" fill="#92D3F2"/>
</g>
</g>
<mask id="mask3_34_178" style="mask-type:luminance" maskUnits="userSpaceOnUse" x="8" y="65" width="86" height="35">
<path d="M8.05493 65.7685H93.9452V99.7109H8.05493V65.7685Z" fill="white"/>
</mask>
<g mask="url(#mask3_34_178)">
<mask id="mask4_34_178" style="mask-type:luminance" maskUnits="userSpaceOnUse" x="8" y="65" width="86" height="35">
<path fill-rule="evenodd" clip-rule="evenodd" d="M51.6784 99.6262C23.4271 100.337 10.8248 77.3506 8.05493 65.7685H29.7183C27.8529 84.8397 28.3193 90.003 31.9652 90.003C38.5362 90.003 41.5886 70.8895 51.6784 70.8895C61.7682 70.8895 64.3118 90.003 69.9078 90.003C75.5038 90.003 74.8255 83.1468 73.7657 65.7685H93.9452C91.628 76.7581 79.9297 98.9152 51.6784 99.6262Z" fill="white"/>
</mask>
<g mask="url(#mask4_34_178)">
<path d="M8.05495 65.7685L-4.31549 68.7169L-8.05676 53.0719H8.05495V65.7685ZM93.9452 65.7685V53.0719H109.62L106.39 68.3842L93.9452 65.7685ZM73.7657 65.7685L61.071 66.5402L60.2496 53.0719H73.7657V65.7685ZM29.7183 65.7685V53.0719H43.7388L42.3762 67.0025L29.7183 65.7685ZM20.4254 62.8202C21.3441 66.6616 24.1736 73.1422 29.3609 78.3865C34.2362 83.3154 41.1676 87.1903 51.3578 86.9338L51.999 112.319C33.9379 112.773 20.4423 105.511 11.2613 96.2286C2.39203 87.2614 -2.4644 76.4575 -4.31549 68.7169L20.4254 62.8202ZM51.3578 86.9338C71.4979 86.4268 79.8704 70.8793 81.5 63.1529L106.39 68.3842C103.385 82.6369 88.3611 111.404 51.999 112.319L51.3578 86.9338ZM93.9452 78.4652H73.7657V53.0719H93.9452V78.4652ZM86.4601 64.9968C86.946 72.9544 87.5183 80.4772 86.985 85.6921C86.7204 88.2805 86.0218 92.6228 83.0891 96.4174C79.4259 101.156 74.2546 102.7 69.9078 102.7V77.3063C69.3312 77.3063 68.1365 77.3926 66.6925 78.0135C65.1488 78.6775 63.8677 79.7187 62.9519 80.9033C61.4323 82.869 61.5475 84.4107 61.6804 83.113C61.7821 82.1184 61.8102 80.3869 61.689 77.4002C61.5708 74.4822 61.3425 70.9907 61.071 66.5402L86.4601 64.9968ZM69.9078 102.7C65.3081 102.7 61.8639 100.671 59.7634 98.9135C57.7672 97.2435 56.3749 95.3314 55.4985 94.0033C53.9193 91.6121 52.1474 88.0613 51.2991 86.5004C50.0631 84.226 49.3146 83.1752 48.8767 82.7258C48.6406 82.4831 49.6736 83.5861 51.6784 83.5861V58.1929C58.7281 58.1929 63.8627 61.6851 67.1161 65.0262C70.1678 68.1604 72.2968 71.8881 73.6574 74.392C75.4058 77.6095 75.9496 78.8372 76.7366 80.0291C77.0432 80.4937 76.8469 80.0744 76.1 79.4498C75.2491 78.738 73.1086 77.3063 69.9078 77.3063V102.7ZM51.6784 83.5861C53.6431 83.5861 54.5959 82.5198 54.2267 82.8855C53.6732 83.4344 52.8429 84.5695 51.4343 86.9347C50.3979 88.675 48.4687 92.1521 46.5143 94.7126C44.8794 96.8541 40.1161 102.7 31.9652 102.7V77.3063C27.0998 77.3063 25.1821 80.7628 26.283 79.3208C27.0643 78.2976 27.7609 76.9958 29.5703 73.9579C31.0073 71.5445 33.2426 67.9015 36.3046 64.8662C39.5507 61.6484 44.6688 58.1929 51.6784 58.1929V83.5861ZM31.9652 102.7C27.3363 102.7 22.4272 100.681 19.2629 95.9882C16.8967 92.478 16.3307 88.5895 16.1105 86.2025C15.6415 81.1212 16.1496 73.8455 17.0604 64.5346L42.3762 67.0025C41.4217 76.7627 41.2302 81.6043 41.4396 83.8725C41.5585 85.1597 41.676 83.7537 40.3644 81.8086C39.5514 80.6024 38.2603 79.2984 36.4261 78.3842C34.6489 77.4984 33.0198 77.3063 31.9652 77.3063V102.7ZM29.7183 78.4652H8.05495V53.0719H29.7183V78.4652Z" fill="#92D3F2"/>
</g>
</g>
<mask id="mask5_34_178" style="mask-type:luminance" maskUnits="userSpaceOnUse" x="0" y="0" width="102" height="48">
<path d="M0.42395 0H101.661V47.9086H0.42395V0Z" fill="white"/>
</mask>
<g mask="url(#mask5_34_178)">
<mask id="mask6_34_178" style="mask-type:luminance" maskUnits="userSpaceOnUse" x="0" y="0" width="102" height="48">
<path fill-rule="evenodd" clip-rule="evenodd" d="M0.42395 47.8657H29.7182L30.8629 21.5503L50.4913 18.3306L72.6633 21.5503V47.8657H101.618C87.3317 31.8247 59.394 0 50.4913 0C42.4493 0 14.7402 31.5598 0.712097 47.5377L0.42395 47.8657Z" fill="white"/>
</mask>
<g mask="url(#mask6_34_178)">
<path d="M29.7182 47.8658V57.3101H38.6431L39.0359 48.2813L29.7182 47.8658ZM0.423906 47.8658L-6.54626 41.5904L-20.3481 57.3101H0.423906V47.8658ZM101.618 47.8658V57.3101H122.589L108.545 41.5405L101.618 47.8658ZM72.6633 47.8658H63.3366V57.3101H72.6633V47.8658ZM72.6633 21.5503H81.99V13.3637L73.9871 12.2016L72.6633 21.5503ZM50.4912 18.3307L51.815 8.98194L50.4054 8.77735L48.9998 9.00775L50.4912 18.3307ZM30.8628 21.5503L29.3714 12.2274L21.8793 13.4566L21.545 21.1348L30.8628 21.5503ZM29.7182 38.4214H0.423906V57.3101H29.7182V38.4214ZM7.39408 54.1411L7.68223 53.8127L-6.25812 41.2624L-6.54626 41.5904L7.39408 54.1411ZM7.68223 53.8127C14.7269 45.7894 24.9919 34.101 34.468 24.4287C39.224 19.5736 43.5916 15.4229 47.1312 12.5464C48.9127 11.0986 50.276 10.1454 51.2248 9.59967C52.4874 8.87359 52.0227 9.44443 50.4912 9.44443V-9.44426C46.9494 -9.44426 43.8595 -7.88709 42.0124 -6.82494C39.852 -5.58235 37.6217 -3.94502 35.4556 -2.1846C31.0996 1.35569 26.1551 6.09363 21.2251 11.1257C11.3287 21.2278 0.725302 33.3082 -6.25812 41.2624L7.68223 53.8127ZM50.4912 9.44443C49.2277 9.44443 48.9558 9.01216 50.2164 9.70336C51.2295 10.259 52.6537 11.2193 54.4902 12.6698C58.1453 15.5571 62.6093 19.7259 67.4561 24.6111C77.1203 34.3519 87.4843 46.098 94.6921 54.1911L108.545 41.5405C101.466 33.5922 90.7172 21.4058 80.6155 11.224C75.5793 6.14797 70.4966 1.3577 65.9631 -2.22317C63.7053 -4.00673 61.3745 -5.65815 59.0999 -6.90577C57.0729 -8.01723 53.9804 -9.44426 50.4912 -9.44426V9.44443ZM101.618 38.4214H72.6633V57.3101H101.618V38.4214ZM81.99 47.8658V21.5503H63.3366V47.8658H81.99ZM73.9871 12.2016L51.815 8.98194L49.1674 27.6795L71.3395 30.8991L73.9871 12.2016ZM48.9998 9.00775L29.3714 12.2274L32.3542 30.8733L51.9827 27.6537L48.9998 9.00775ZM21.545 21.1348L20.4004 47.4503L39.0359 48.2813L40.1806 21.9659L21.545 21.1348Z" fill="#E1B98E"/>
</g>
</g>
<mask id="mask7_34_178" style="mask-type:luminance" maskUnits="userSpaceOnUse" x="8" y="13" width="86" height="35">
<path d="M8.05493 13.9663H93.9452V47.9086H8.05493V13.9663Z" fill="white"/>
</mask>
<g mask="url(#mask7_34_178)">
<mask id="mask8_34_178" style="mask-type:luminance" maskUnits="userSpaceOnUse" x="8" y="13" width="86" height="35">
<path fill-rule="evenodd" clip-rule="evenodd" d="M51.6784 13.9826C23.4271 13.2713 10.8248 36.2579 8.05493 47.8403H29.7183C32.4315 25.2826 36.8405 23.0395 40.4864 23.0395C44.1322 23.0395 47.5712 27.3141 51.6784 27.3141C57.3168 27.3141 59.1821 23.0395 63.4215 23.0395C67.6609 23.0395 70.5437 27.3141 72.4514 47.8403H93.9452C91.628 36.8504 79.9297 14.6934 51.6784 13.9826Z" fill="white"/>
</mask>
<g mask="url(#mask8_34_178)">
<path d="M8.05495 47.8401L-4.31549 44.8917L-8.05676 60.5367H8.05495V47.8401ZM93.9452 47.8401V60.5367H109.62L106.39 45.2244L93.9452 47.8401ZM72.4515 47.8401L59.7876 49.0129L60.8586 60.5367H72.4515V47.8401ZM29.7183 47.8401V60.5367H41.0007L42.3458 49.3537L29.7183 47.8401ZM20.4254 50.7884C21.3441 46.947 24.1736 40.4664 29.3609 35.2221C34.2362 30.293 41.1676 26.4185 51.3578 26.675L51.999 1.28973C33.9379 0.835102 20.4423 8.0983 11.2613 17.3804C2.39203 26.347 -2.4644 37.1508 -4.31549 44.8917L20.4254 50.7884ZM51.3578 26.675C71.4979 27.182 79.8704 42.729 81.5 50.4558L106.39 45.2244C103.385 30.9717 88.3611 2.20495 51.999 1.28973L51.3578 26.675ZM93.9452 35.1434H72.4515V60.5367H93.9452V35.1434ZM85.1154 46.667C84.1569 36.3532 82.8529 28.4774 80.5825 22.9355C79.3948 20.0371 77.5281 16.7138 74.336 14.144C70.8054 11.3019 66.8674 10.3427 63.4215 10.3427V35.7359C62.0954 35.7359 60.1075 35.3108 58.3694 33.9115C56.9697 32.7846 56.7379 31.8132 57.0393 32.5489C57.747 34.2762 58.8383 38.8003 59.7876 49.0129L85.1154 46.667ZM63.4215 10.3427C56.9038 10.3427 52.0752 13.944 51.3008 14.4304C50.0867 15.1932 50.7686 14.6172 51.6784 14.6172V40.0105C58.2266 40.0105 62.6604 37.2969 64.8483 35.9224C67.4761 34.2715 65.6999 35.7359 63.4215 35.7359V10.3427ZM51.6784 14.6172C52.8797 14.6172 53.6166 14.9323 53.6295 14.9376C53.6438 14.9436 53.5566 14.9075 53.3212 14.7812C53.0751 14.649 52.7879 14.4843 52.3338 14.2188C51.6304 13.8078 50.0572 12.8605 48.3796 12.1133C46.6193 11.3287 43.8692 10.3427 40.4864 10.3427V35.7359C39.6901 35.7359 39.0599 35.6185 38.6499 35.5121C38.2531 35.4093 38.0249 35.3071 38.0116 35.3011C38.0011 35.2962 38.0987 35.3399 38.3717 35.4913C38.6657 35.6543 38.9648 35.8301 39.4849 36.134C40.336 36.6313 41.9483 37.583 43.7898 38.354C45.7164 39.1607 48.4236 40.0105 51.6784 40.0105V14.6172ZM40.4864 10.3427C38.1785 10.3427 34.7834 10.7154 31.2491 12.7693C27.8062 14.77 25.3871 17.6916 23.657 20.7747C20.4668 26.4592 18.4796 34.7804 17.0908 46.3264L42.3458 49.3537C42.983 44.0565 43.6861 40.2479 44.3671 37.5442C45.0623 34.7844 45.6412 33.5547 45.8482 33.1864C46.0151 32.8888 45.5514 33.8401 44.0455 34.7153C42.4481 35.6433 40.9713 35.7359 40.4864 35.7359V10.3427ZM29.7183 35.1434H8.05495V60.5367H29.7183V35.1434Z" fill="#E1B98E"/>
</g>
</g>
<path d="M100.883 60.7772C100.805 60.7386 100.709 60.7192 100.593 60.7192C100.505 60.7289 100.443 60.7337 100.404 60.7337L98.6475 60.8206C97.7963 60.8206 97.0467 60.7289 96.399 60.5454C95.6444 60.3329 94.9813 59.9901 94.4107 59.5168C93.7917 59.005 93.322 58.3965 93.0032 57.6915C92.6937 56.9768 92.5386 56.209 92.5386 55.388C92.5386 54.7313 92.6598 54.1084 92.9015 53.5193C93.1431 52.9205 93.5009 52.423 93.9749 52.0271C94.459 51.6311 95.0059 51.3462 95.6147 51.1724C96.2345 50.9986 96.8924 50.9116 97.5885 50.9116L99.1851 51.042L99.6489 51.0855C99.7947 51.0855 99.91 51.0661 99.9974 51.0275C100.085 50.9793 100.157 50.8972 100.215 50.7813L100.883 53.5193L100.766 53.5627C100.505 52.9639 100.085 52.5003 99.5039 52.172C98.924 51.8339 98.2855 51.665 97.5885 51.665C97.0756 51.665 96.6262 51.7373 96.2387 51.8822C95.8614 52.0271 95.518 52.2782 95.2085 52.6356C94.9084 52.9929 94.6769 53.4034 94.5124 53.8669C94.3573 54.3209 94.2801 54.7941 94.2801 55.2866C94.2801 56.5905 94.6769 57.7011 95.4697 58.6187C96.3023 59.5844 97.3613 60.0673 98.6475 60.0673C99.3835 60.0673 100.017 59.8694 100.548 59.4734C101.09 59.0677 101.526 58.5124 101.855 57.8073L102 57.8653L100.883 60.7772Z" fill="#633B16"/>
<path d="M83.4881 52.9978C83.4881 52.3217 83.4155 51.8726 83.2703 51.6505C83.1253 51.4186 82.8834 51.2786 82.5448 51.2303V51.1H86.0276V51.2303C85.708 51.2593 85.4714 51.38 85.3163 51.5925C85.1619 51.805 85.0839 52.2396 85.0839 52.8964V54.6637L86.332 53.6642C87.0002 53.1136 87.4741 52.6887 87.7548 52.3893C88.1024 52.0223 88.2771 51.7519 88.2771 51.578C88.2771 51.4525 88.2431 51.3704 88.1753 51.3318C88.1168 51.2835 88.0202 51.2497 87.8853 51.2303V51.1H91.382V51.2303C90.8885 51.2303 90.4002 51.38 89.9169 51.6794C89.7905 51.7567 89.3751 52.0802 88.6688 52.65L87.5801 53.5482C88.2864 54.205 88.9104 54.9631 89.4522 55.8227C89.955 56.605 90.4002 57.4838 90.7876 58.4593L91.0632 59.1257C91.2565 59.5989 91.382 59.8838 91.4405 59.9804C91.6338 60.2894 91.8755 60.4633 92.1663 60.5019V60.6323H88.9732V60.5019C89.3123 60.4537 89.481 60.2653 89.481 59.937C89.481 59.5796 89.3556 59.0919 89.1037 58.4737C88.9198 58.0295 88.6883 57.5708 88.4076 57.0975C88.1363 56.6146 87.8463 56.1704 87.5369 55.7647C87.2274 55.3494 86.8696 54.9197 86.4626 54.4754L85.0839 55.5764V58.7345C85.0839 59.2947 85.1229 59.681 85.2001 59.8935C85.3358 60.2605 85.6113 60.4633 86.0276 60.5019V60.6323H82.5448V60.5019C82.9511 60.4344 83.222 60.2364 83.3574 59.908C83.4445 59.6955 83.4881 59.3381 83.4881 58.8359V52.9978Z" fill="#633B16"/>
<path d="M76.8341 60.0673C77.7822 60.0673 78.5029 59.6955 78.9962 58.9519C79.422 58.3048 79.6348 57.4645 79.6348 56.4312C79.6348 55.1177 79.3058 53.9973 78.648 53.0702C77.9902 52.1334 77.1581 51.6649 76.152 51.6649C75.1846 51.6649 74.4687 52.0464 74.0044 52.8094C73.6076 53.4565 73.4093 54.3113 73.4093 55.3736C73.4093 56.6099 73.6754 57.6625 74.2075 58.5317C74.8266 59.5555 75.7021 60.0673 76.8341 60.0673ZM71.6679 55.8951H70.2894V58.7346C70.2894 59.2947 70.3281 59.681 70.4054 59.8935C70.5409 60.2605 70.8167 60.4633 71.2326 60.502V60.6323H67.7499V60.502C68.0691 60.4536 68.3062 60.3281 68.4609 60.1253C68.6157 59.9128 68.6931 59.483 68.6931 58.836V52.9978C68.6931 52.3121 68.6206 51.8581 68.4754 51.636C68.3303 51.4139 68.0884 51.2786 67.7499 51.2304V51.0999H71.2326V51.2304C70.8263 51.2786 70.5554 51.467 70.4199 51.7954C70.3329 52.0175 70.2894 52.3845 70.2894 52.8964V55.1563H71.6825C71.6825 53.9684 72.142 52.964 73.0611 52.143C73.9801 51.3221 75.1217 50.9117 76.4858 50.9117C77.9562 50.9117 79.1366 51.3849 80.0266 52.3313C80.9263 53.2682 81.3762 54.4899 81.3762 55.9965C81.3762 57.397 80.9118 58.5511 79.983 59.4589C79.0543 60.3667 77.8934 60.8207 76.5003 60.8207C75.1169 60.8207 73.9656 60.3426 73.0466 59.3864C72.1275 58.4303 71.6679 57.2665 71.6679 55.8951Z" fill="#633B16"/>
<path d="M62.9732 51.7664C62.654 51.7664 62.3541 51.834 62.0735 51.9692C61.793 52.0947 61.5415 52.3072 61.3189 52.6066C60.8062 53.302 60.3709 54.1664 60.0129 55.1998C59.597 56.407 59.3889 57.5997 59.3889 58.778C59.3889 59.1933 59.4808 59.5555 59.6646 59.8645C59.8969 60.2412 60.2354 60.4537 60.6805 60.5019V60.6323H58.0974C58.0974 60.0432 58.1555 59.3672 58.2716 58.6042C58.4361 57.5322 58.6779 56.5229 58.9971 55.5764C59.4132 54.3595 59.9404 53.2923 60.5789 52.3748C60.7046 52.201 60.7676 51.9981 60.7676 51.7664C60.7676 51.6118 60.7336 51.4911 60.666 51.4042C60.5982 51.3076 60.4822 51.2497 60.3177 51.2303V51.1H66.7027V51.2303C66.3835 51.2786 66.1464 51.4235 65.9917 51.665C65.8369 51.8967 65.7595 52.341 65.7595 52.9978V58.8359C65.7595 59.3479 65.7982 59.7051 65.8755 59.908C66.011 60.246 66.2867 60.444 66.7027 60.5019V60.6323H63.2055V60.5165C63.6214 60.4681 63.8972 60.2653 64.0326 59.908C64.1197 59.6762 64.1632 59.2899 64.1632 58.749V53.0412C64.1632 52.5776 64.1052 52.2637 63.9891 52.0995C63.8246 51.8774 63.486 51.7664 62.9732 51.7664Z" fill="#633B16"/>
<path d="M53.3935 51.7664C53.0743 51.7664 52.7744 51.834 52.4938 51.9692C52.2133 52.0947 51.9617 52.3072 51.7392 52.6066C51.2265 53.302 50.7911 54.1664 50.4331 55.1998C50.0172 56.407 49.8092 57.5997 49.8092 58.778C49.8092 59.1933 49.9011 59.5555 50.0849 59.8645C50.3171 60.2412 50.6557 60.4537 51.1007 60.5019V60.6323H48.5177C48.5177 60.0432 48.5757 59.3672 48.6918 58.6042C48.8563 57.5322 49.0982 56.5229 49.4174 55.5764C49.8334 54.3595 50.3607 53.2923 50.9991 52.3748C51.1249 52.201 51.1878 51.9981 51.1878 51.7664C51.1878 51.6118 51.1539 51.4911 51.0862 51.4042C51.0185 51.3076 50.9024 51.2497 50.738 51.2303V51.1H57.123V51.2303C56.8037 51.2786 56.5667 51.4235 56.4119 51.665C56.2571 51.8967 56.1797 52.341 56.1797 52.9978V58.8359C56.1797 59.3479 56.2184 59.7051 56.2958 59.908C56.4312 60.246 56.707 60.444 57.123 60.5019V60.6323H53.6257V60.5165C54.0417 60.4681 54.3175 60.2653 54.4529 59.908C54.5399 59.6762 54.5834 59.2899 54.5834 58.749V53.0412C54.5834 52.5776 54.5254 52.2637 54.4094 52.0995C54.2449 51.8774 53.9062 51.7664 53.3935 51.7664Z" fill="#633B16"/>
<path d="M40.6354 58.6911C40.558 58.9132 40.5 59.1015 40.4613 59.2561C40.4226 59.4106 40.4033 59.5651 40.4033 59.7196C40.4033 59.9515 40.4807 60.1398 40.6354 60.2846C40.7902 60.4295 40.9789 60.5019 41.2014 60.5019V60.6323H38.2411V60.5019C38.4152 60.4633 38.5555 60.4151 38.6619 60.3571C38.778 60.2894 38.8892 60.1784 38.9956 60.0239C39.1118 59.8694 39.2327 59.6569 39.3584 59.3865C39.4455 59.1933 39.5422 58.9615 39.6487 58.6911L41.985 52.5342C42.0624 52.3217 42.1156 52.1623 42.1446 52.0561C42.1833 51.9499 42.2026 51.8292 42.2026 51.6939C42.2026 51.5684 42.1591 51.467 42.0721 51.3897C41.9947 51.3124 41.8882 51.2593 41.7528 51.2303V51.1H44.9744V51.2303C44.6938 51.3076 44.5536 51.4815 44.5536 51.7519C44.5536 51.8292 44.5632 51.9161 44.5826 52.0127C44.6116 52.1093 44.6455 52.2107 44.6841 52.3169L47.1656 59.4444C47.2334 59.6182 47.3059 59.7921 47.3833 59.9659C47.5284 60.246 47.7509 60.4247 48.0508 60.5019V60.6323H44.7567V60.5019C45.0083 60.444 45.1872 60.3281 45.2936 60.1543C45.4097 59.9804 45.4677 59.7583 45.4677 59.4879C45.4677 58.7732 45.0953 58.0923 44.3504 57.4452C43.5377 56.7402 42.5799 56.3877 41.4771 56.3877L40.6354 58.6911ZM43.0153 52.1865L41.6948 55.6633C42.2656 55.6633 42.8025 55.7599 43.3056 55.953C43.8086 56.1365 44.2488 56.4263 44.6261 56.8222L43.0153 52.1865Z" fill="#633B16"/>
<path d="M35.0621 58.7491C35.0621 59.3382 35.1007 59.739 35.1781 59.9514C35.3136 60.3185 35.5893 60.502 36.0053 60.502V60.6323H32.5226V60.502C32.9289 60.502 33.1998 60.3329 33.3352 59.9949C33.4223 59.7728 33.4658 59.3864 33.4658 58.836V51.8533C32.5564 51.8533 31.826 52.0078 31.2746 52.3169C30.7231 52.6259 30.312 53.1281 30.0411 53.8235L29.9105 53.78L30.6216 50.9117C30.6796 50.9889 30.7521 51.0421 30.8392 51.071C30.9263 51.0903 31.0472 51.0999 31.202 51.0999H31.4777H37.0501H37.3258C37.471 51.0999 37.5871 51.0903 37.6741 51.071C37.7709 51.0421 37.8483 50.9889 37.9063 50.9117L38.6174 53.78L38.4867 53.8235C38.2158 53.1281 37.7999 52.6259 37.2388 52.3169C36.6874 52.0078 35.9618 51.8533 35.0621 51.8533V58.7491Z" fill="#633B16"/>
<path d="M22.6877 58.7345C22.6877 59.2947 22.7264 59.681 22.8038 59.8935C22.9392 60.2605 23.215 60.4633 23.6309 60.5019V60.6323H20.1482V60.5019C20.4674 60.4537 20.7045 60.3281 20.8592 60.1253C21.014 59.9128 21.0915 59.483 21.0915 58.8359V52.9978C21.0915 52.3121 21.0189 51.8581 20.8737 51.636C20.7287 51.4138 20.4868 51.2786 20.1482 51.2303V51.1H23.6309V51.2303C23.2246 51.2786 22.9537 51.467 22.8183 51.7953C22.7313 52.0175 22.6877 52.3844 22.6877 52.8964V53.7511H27.0121V52.9978C27.0121 52.4183 26.9734 52.0175 26.896 51.7953C26.7702 51.4186 26.4946 51.2303 26.0689 51.2303V51.1H29.5516V51.2303C29.1453 51.2786 28.8744 51.4718 28.739 51.8098C28.6519 52.032 28.6083 52.3942 28.6083 52.8964V58.7345C28.6083 59.2851 28.6471 59.6665 28.7245 59.879C28.8599 60.246 29.1356 60.4537 29.5516 60.5019V60.6323H26.0689V60.5019C26.4752 60.5019 26.7461 60.3281 26.8816 59.9804C26.9685 59.7583 27.0121 59.3768 27.0121 58.8359V54.4465H22.6877V58.7345Z" fill="#633B16"/>
<path d="M18.7827 53.8381L18.6666 53.8815C18.3764 53.1862 17.8782 52.6501 17.172 52.2735C16.5334 51.9355 15.8126 51.7664 15.0097 51.7664C14.4776 51.7664 14.1197 51.8437 13.9359 51.9982C13.7617 52.1431 13.6746 52.4714 13.6746 52.9834V53.8091H14.792H15.0533C15.4789 53.8091 15.7836 53.7705 15.9675 53.6932C16.2577 53.5677 16.4028 53.3165 16.4028 52.9399L16.5334 52.8964L17.0994 56.1414L16.9833 56.185C16.7511 55.422 16.3883 54.9294 15.8949 54.7073C15.566 54.5624 14.9419 54.4899 14.0229 54.4899H13.6746V58.3724C13.6746 59.0099 13.7375 59.4155 13.8633 59.5893C14.0471 59.8405 14.4825 59.966 15.1693 59.966C16.1948 59.966 17.0606 59.7342 17.7669 59.2707C18.4828 58.7974 19.0681 58.0972 19.5228 57.17L19.6679 57.2135L18.4344 60.8207C18.3667 60.7242 18.2893 60.6662 18.2022 60.6469C18.1248 60.6372 17.9894 60.6324 17.7959 60.6324H11.1351V60.5021C11.5414 60.4344 11.8123 60.2364 11.9478 59.908C12.0348 59.6956 12.0784 59.3382 12.0784 58.836V52.9978C12.0784 52.4666 12.0397 52.0948 11.9623 51.8823C11.8268 51.5153 11.5511 51.298 11.1351 51.2305V51.1H17.346H17.5492C17.7137 51.1 17.8346 51.0904 17.912 51.0711C17.9894 51.0421 18.062 50.9938 18.1296 50.9262L18.7827 53.8381Z" fill="#633B16"/>
<path d="M3.95628 59.879H6.46677C6.80537 59.879 7.05206 59.8259 7.20685 59.7196C7.44871 59.5458 7.56964 59.2222 7.56964 58.749V53.0412C7.56964 52.5583 7.52127 52.2444 7.42453 52.0995C7.26974 51.8774 6.92147 51.7664 6.3797 51.7664C6.0798 51.7664 5.77506 51.8436 5.46548 51.9981C5.16557 52.143 4.91888 52.3458 4.7254 52.6066C4.21266 53.302 3.77731 54.1664 3.41936 55.1998C3.00337 56.407 2.79537 57.5997 2.79537 58.778C2.79537 59.2706 2.89695 59.5893 3.10011 59.7342C3.23555 59.8308 3.52094 59.879 3.95628 59.879ZM10.2688 60.1253L10.9798 62.9937L10.8493 63.0372C10.559 62.2935 10.143 61.7188 9.60127 61.3132C9.00148 60.8593 8.27587 60.6323 7.42453 60.6323H3.2162C2.36486 60.6323 1.64412 60.8544 1.05399 61.2987C0.502554 61.714 0.0817214 62.2935 -0.208508 63.0372L-0.339111 62.9937L0.371951 60.1253C0.488043 60.2315 0.608971 60.2846 0.734738 60.2846C0.966921 60.2846 1.17976 60.0818 1.37324 59.6762C1.52803 59.3672 1.62477 59.063 1.66347 58.7635C1.80859 57.6818 2.04561 56.6485 2.37454 55.6633C2.79053 54.4078 3.32745 53.3116 3.98531 52.3748C4.11107 52.201 4.17396 51.9981 4.17396 51.7664C4.17396 51.6118 4.1401 51.4911 4.07238 51.4042C4.00466 51.3076 3.88856 51.2497 3.7241 51.2303V51.1H10.1091V51.2303C9.78992 51.2786 9.55285 51.4235 9.39812 51.665C9.24329 51.8967 9.16588 52.341 9.16588 52.9978V58.8359C9.16588 59.2899 9.22396 59.6472 9.34004 59.908C9.46578 60.1687 9.6351 60.2991 9.84792 60.2991C9.96408 60.2991 10.1043 60.2412 10.2688 60.1253Z" fill="#633B16"/>
<path d="M62.861 41.5942C63.248 41.5942 63.5646 41.715 63.8105 41.9565C64.0605 42.198 64.1855 42.51 64.1855 42.8923C64.1855 43.315 64.0423 43.6612 63.7561 43.9308C63.4738 44.2005 63.113 44.3354 62.6735 44.3354C62.2219 44.3354 61.853 44.2005 61.5668 43.9308C61.2845 43.6612 61.1434 43.315 61.1434 42.8923C61.1434 42.518 61.2825 42.0934 61.5607 41.6185L62.359 40.2419H63.3085C63.2037 40.423 63.0626 40.6665 62.8851 40.9724C62.7078 41.2783 62.5747 41.5057 62.4861 41.6547C62.611 41.6144 62.736 41.5942 62.861 41.5942ZM62.6675 43.5384C62.857 43.5384 63.0122 43.478 63.1332 43.3572C63.2541 43.2365 63.3146 43.0815 63.3146 42.8923C63.3146 42.6992 63.2541 42.5422 63.1332 42.4214C63.0122 42.3007 62.857 42.2403 62.6675 42.2403C62.478 42.2403 62.3207 42.3007 62.1957 42.4214C62.0747 42.5422 62.0143 42.6992 62.0143 42.8923C62.0143 43.0815 62.0747 43.2365 62.1957 43.3572C62.3207 43.478 62.478 43.5384 62.6675 43.5384Z" fill="#92D3F2"/>
<path d="M58.8191 40.1635C59.2706 40.1635 59.6375 40.2983 59.9198 40.568C60.202 40.8377 60.3431 41.1858 60.3431 41.6125C60.3431 41.9909 60.206 42.4155 59.9318 42.8864L59.1275 44.263H58.178C58.6618 43.4338 58.936 42.9629 59.0005 42.8502C58.8755 42.8864 58.7505 42.9045 58.6255 42.9045C58.2384 42.9045 57.9219 42.7838 57.676 42.5423C57.4301 42.3008 57.3071 41.9909 57.3071 41.6125C57.3071 41.3348 57.3717 41.0853 57.5006 40.8638C57.6297 40.6425 57.8091 40.4714 58.0388 40.3506C58.2687 40.2259 58.5288 40.1635 58.8191 40.1635ZM58.8251 42.2706C59.0226 42.2706 59.1859 42.2102 59.315 42.0895C59.448 41.9647 59.5146 41.8057 59.5146 41.6125C59.5146 41.4193 59.448 41.2624 59.315 41.1416C59.1859 41.0168 59.0226 40.9544 58.8251 40.9544C58.6235 40.9544 58.4582 41.0168 58.3292 41.1416C58.2002 41.2624 58.1357 41.4193 58.1357 41.6125C58.1357 41.8057 58.2002 41.9647 58.3292 42.0895C58.4582 42.2102 58.6235 42.2706 58.8251 42.2706Z" fill="#92D3F2"/>
<path d="M55.0615 40.1635C55.5131 40.1635 55.88 40.2983 56.1622 40.568C56.4445 40.8377 56.5856 41.1858 56.5856 41.6125C56.5856 41.9909 56.4485 42.4155 56.1743 42.8864L55.37 44.263H54.4205C54.9043 43.4338 55.1784 42.9629 55.2429 42.8502C55.118 42.8864 54.993 42.9045 54.868 42.9045C54.481 42.9045 54.1644 42.7838 53.9185 42.5423C53.6726 42.3008 53.5496 41.9909 53.5496 41.6125C53.5496 41.3348 53.6141 41.0853 53.7431 40.8638C53.8721 40.6425 54.0516 40.4714 54.2814 40.3506C54.5112 40.2259 54.7713 40.1635 55.0615 40.1635ZM55.0676 42.2706C55.2652 42.2706 55.4285 42.2102 55.5574 42.0895C55.6905 41.9647 55.757 41.8057 55.757 41.6125C55.757 41.4193 55.6905 41.2624 55.5574 41.1416C55.4285 41.0168 55.2652 40.9544 55.0676 40.9544C54.866 40.9544 54.7007 41.0168 54.5717 41.1416C54.4426 41.2624 54.3781 41.4193 54.3781 41.6125C54.3781 41.8057 54.4426 41.9647 54.5717 42.0895C54.7007 42.2102 54.866 42.2706 55.0676 42.2706Z" fill="#92D3F2"/>
<path d="M51.1104 40.248H52.586V44.263H51.7393V41.0027H51.1104V40.248Z" fill="#92D3F2"/>
<path d="M47.5562 44.2628V43.321H48.4936V44.2628H47.5562Z" fill="#92D3F2"/>
<path d="M46.2383 43.478H46.6375V44.2628H46.0085C45.6496 44.2628 45.3674 44.1602 45.1618 43.955C44.9561 43.7456 44.8534 43.4599 44.8534 43.0976V41.7089H44.2607V41.5218L45.5489 40.1513H45.7182V41.0026H46.6193V41.7089H45.7364V42.9829C45.7364 43.1398 45.7787 43.2627 45.8634 43.3512C45.9521 43.4357 46.077 43.478 46.2383 43.478ZM42.8152 42.2523C42.9241 42.2725 43.0027 42.2886 43.0511 42.3007C43.1035 42.3087 43.1802 42.3268 43.2809 42.3549C43.3858 42.3831 43.4644 42.4113 43.5168 42.4395C43.5732 42.4677 43.6378 42.5079 43.7104 42.5603C43.7869 42.6126 43.8434 42.669 43.8797 42.7293C43.9199 42.7897 43.9543 42.8662 43.9824 42.9587C44.0107 43.0472 44.0248 43.1459 44.0248 43.2545C44.0248 43.5886 43.8998 43.8564 43.6498 44.0576C43.3999 44.2548 43.0693 44.3534 42.658 44.3534C42.2467 44.3534 41.9161 44.2467 41.6662 44.0334C41.4162 43.8201 41.2891 43.5383 41.2852 43.1882H42.144C42.148 43.329 42.1983 43.4377 42.2952 43.5142C42.396 43.5867 42.527 43.6228 42.6882 43.6228C42.8213 43.6228 42.9322 43.5947 43.0209 43.5383C43.1095 43.482 43.1539 43.4015 43.1539 43.2969C43.1539 43.2445 43.1378 43.1982 43.1056 43.158C43.0773 43.1177 43.0309 43.0855 42.9664 43.0614C42.9019 43.0332 42.8375 43.0111 42.7729 42.9949C42.7084 42.9788 42.6257 42.9628 42.5249 42.9467C42.3919 42.9265 42.281 42.9064 42.1923 42.8862C42.1077 42.8662 42.0048 42.8319 41.8838 42.7837C41.7669 42.7313 41.6722 42.6729 41.5996 42.6085C41.5311 42.5441 41.4706 42.4556 41.4182 42.3429C41.3658 42.2302 41.3396 42.0994 41.3396 41.9504C41.3396 41.6445 41.4605 41.395 41.7025 41.2018C41.9444 41.0086 42.2609 40.912 42.6519 40.912C43.0471 40.912 43.3636 41.0126 43.6015 41.2138C43.8434 41.4111 43.9643 41.6727 43.9643 41.9987H43.1237C43.1237 41.7412 42.9604 41.6123 42.6338 41.6123C42.4967 41.6123 42.3899 41.6405 42.3133 41.6969C42.2366 41.7532 42.1983 41.8297 42.1983 41.9263C42.1983 41.9666 42.2084 42.0048 42.2286 42.041C42.2528 42.0732 42.279 42.0994 42.3072 42.1195C42.3395 42.1396 42.3878 42.1597 42.4523 42.1799C42.5169 42.196 42.5713 42.2081 42.6157 42.2161C42.66 42.2242 42.7266 42.2363 42.8152 42.2523Z" fill="#92D3F2"/>
<path d="M38.8195 43.4117H40.5069V44.263H37.9003V40.0367H40.4403V40.882H38.8195V41.7151H40.2831V42.5423H38.8195V43.4117Z" fill="#92D3F2"/>
</g>
</svg>
